<?xml version="1.0" encoding="UTF-8"?>
<svg version="1.1" xmlns="http://www.w3.org/2000/svg" width="168" height="178">
<path d="M0 0 C12.87 0 25.74 0 39 0 C39 0.99 39 1.98 39 3 C41.64 3 44.28 3 47 3 C47 4.32 47 5.64 47 7 C48.32 7 49.64 7 51 7 C51 8.32 51 9.64 51 11 C52.32 11 53.64 11 55 11 C55 12.32 55 13.64 55 15 C55.99 15 56.98 15 58 15 C58 16.32 58 17.64 58 19 C59.32 19 60.64 19 62 19 C62 21.31 62 23.62 62 26 C63.32 26 64.64 26 66 26 C66 33.92 66 41.84 66 50 C64.68 50.33 63.36 50.66 62 51 C62 55.62 62 60.24 62 65 C60.68 65.33 59.36 65.66 58 66 C58 68.31 58 70.62 58 73 C56.515 73.495 56.515 73.495 55 74 C55.020625 74.969375 55.04125 75.93875 55.0625 76.9375 C55 80 55 80 54 81 C51.66702567 81.04092937 49.33294775 81.04241723 47 81 C47 81.66 47 82.32 47 83 C48.98 83.495 48.98 83.495 51 84 C51 84.99 51 85.98 51 87 C52.98 87.495 52.98 87.495 55 88 C55 88.99 55 89.98 55 91 C56.485 91.495 56.485 91.495 58 92 C58 92.99 58 93.98 58 95 C59.98 95.495 59.98 95.495 62 96 C62 96.66 62 97.32 62 98 C63.98 98.495 63.98 98.495 66 99 C66 99.99 66 100.98 66 102 C67.98 102.495 67.98 102.495 70 103 C70 105.31 70 107.62 70 110 C71.98 110.495 71.98 110.495 74 111 C74 112.98 74 114.96 74 117 C75.485 117.495 75.485 117.495 77 118 C77 118.99 77 119.98 77 121 C78.98 121.495 78.98 121.495 81 122 C81 125.96 81 129.92 81 134 C79.68 134 78.36 134 77 134 C77 138.62 77 143.24 77 148 C78.32 148.33 79.64 148.66 81 149 C81 150.98 81 152.96 81 155 C82.32 155.33 83.64 155.66 85 156 C85 156.99 85 157.98 85 159 C86.32 159.33 87.64 159.66 89 160 C89 160.99 89 161.98 89 163 C45.77 163 2.54 163 -42 163 C-42 160.69 -42 158.38 -42 156 C-40.68 155.67 -39.36 155.34 -38 155 C-38 146.75 -38 138.5 -38 130 C-37.01 129.67 -36.02 129.34 -35 129 C-35 126.69 -35 124.38 -35 122 C-33.02 121.505 -33.02 121.505 -31 121 C-31 119.02 -31 117.04 -31 115 C-29.02 114.505 -29.02 114.505 -27 114 C-27 111.69 -27 109.38 -27 107 C-25.02 106.505 -25.02 106.505 -23 106 C-22.67 104.68 -22.34 103.36 -22 102 C-21.01 102 -20.02 102 -19 102 C-18.67 100.68 -18.34 99.36 -18 98 C-17.34 98 -16.68 98 -16 98 C-16 96.02 -16 94.04 -16 92 C-14.02 91.505 -14.02 91.505 -12 91 C-11.67 89.68 -11.34 88.36 -11 87 C-8.69 87 -6.38 87 -4 87 C-4 85.02 -4 83.04 -4 81 C-5.32 80.67 -6.64 80.34 -8 80 C-8 79.34 -8 78.68 -8 78 C-9.32 77.67 -10.64 77.34 -12 77 C-12 76.01 -12 75.02 -12 74 C-12.66 74 -13.32 74 -14 74 C-14 75.98 -14 77.96 -14 80 C-15.9375 80.5625 -15.9375 80.5625 -18 81 C-19 80 -19 80 -19.0625 76.9375 C-19.041875 75.968125 -19.02125 74.99875 -19 74 C-20.32 73.67 -21.64 73.34 -23 73 C-23 72.01 -23 71.02 -23 70 C-24.32 69.67 -25.64 69.34 -27 69 C-27 60.42 -27 51.84 -27 43 C-28.98 43 -30.96 43 -33 43 C-33 45.31 -33 47.62 -33 50 C-34.9375 50.5625 -34.9375 50.5625 -37 51 C-38 50 -38 50 -38.09765625 47.93359375 C-38.08605469 47.10988281 -38.07445312 46.28617188 -38.0625 45.4375 C-38.05347656 44.61121094 -38.04445313 43.78492188 -38.03515625 42.93359375 C-38.02355469 42.29550781 -38.01195312 41.65742187 -38 41 C-37.01 41 -36.02 41 -35 41 C-35 38.69 -35 36.38 -35 34 C-33.68 34 -32.36 34 -31 34 C-31 32.68 -31 31.36 -31 30 C-29.68 30 -28.36 30 -27 30 C-27 28.68 -27 27.36 -27 26 C-25.68 26 -24.36 26 -23 26 C-23 24.68 -23 23.36 -23 22 C-21.68 22 -20.36 22 -19 22 C-19 19.69 -19 17.38 -19 15 C-18.01 15 -17.02 15 -16 15 C-16 13.68 -16 12.36 -16 11 C-14.68 11 -13.36 11 -12 11 C-12 9.68 -12 8.36 -12 7 C-10.68 7 -9.36 7 -8 7 C-8 5.68 -8 4.36 -8 3 C-5.36 3 -2.72 3 0 3 C0 2.01 0 1.02 0 0 Z " fill="#966F66" transform="translate(67,15)"/>
<path d="M0 0 C1.32 0 2.64 0 4 0 C4 6.27 4 12.54 4 19 C5.32 19 6.64 19 8 19 C8 14.05 8 9.1 8 4 C10.64 4 13.28 4 16 4 C16 7.96 16 11.92 16 16 C16.99 16 17.98 16 19 16 C19 12.04 19 8.08 19 4 C20.32 4 21.64 4 23 4 C23 5.32 23 6.64 23 8 C24.32 8 25.64 8 27 8 C27 11.63 27 15.26 27 19 C28.32 19 29.64 19 31 19 C31 16.69 31 14.38 31 12 C31.99 12 32.98 12 34 12 C34 9.36 34 6.72 34 4 C36.64 4 39.28 4 42 4 C42 5.32 42 6.64 42 8 C43.32 8 44.64 8 46 8 C46 9.32 46 10.64 46 12 C47.32 12 48.64 12 50 12 C50 13.32 50 14.64 50 16 C50.99 16 51.98 16 53 16 C53 18.31 53 20.62 53 23 C52.01 23 51.02 23 50 23 C50 29.27 50 35.54 50 42 C50.99 42 51.98 42 53 42 C53 40.68 53 39.36 53 38 C54.32 38 55.64 38 57 38 C57 40.64 57 43.28 57 46 C55.68 46 54.36 46 53 46 C53.33 52.6 53.66 59.2 54 66 C52.02 65.505 52.02 65.505 50 65 C50 66.32 50 67.64 50 69 C47.36 69 44.72 69 42 69 C42 66.36 42 63.72 42 61 C43.32 61 44.64 61 46 61 C46 59.68 46 58.36 46 57 C44.68 57 43.36 57 42 57 C42 54.69 42 52.38 42 50 C43.32 50 44.64 50 46 50 C46 48.68 46 47.36 46 46 C42.04 46 38.08 46 34 46 C34 43.36 34 40.72 34 38 C29.05 38 24.1 38 19 38 C19 37.01 19 36.02 19 35 C18.01 35 17.02 35 16 35 C16 33.68 16 32.36 16 31 C14.68 31 13.36 31 12 31 C12 34.63 12 38.26 12 42 C10.68 42 9.36 42 8 42 C8 44.64 8 47.28 8 50 C6.68 50 5.36 50 4 50 C4 51.32 4 52.64 4 54 C2.68 54 1.36 54 0 54 C0 54.99 0 55.98 0 57 C-0.99 57 -1.98 57 -3 57 C-3 58.32 -3 59.64 -3 61 C-4.32 61 -5.64 61 -7 61 C-7 58.69 -7 56.38 -7 54 C-8.32 54 -9.64 54 -11 54 C-11 58.95 -11 63.9 -11 69 C-12.32 69 -13.64 69 -15 69 C-15 67.68 -15 66.36 -15 65 C-16.32 65 -17.64 65 -19 65 C-19 58.73 -19 52.46 -19 46 C-19.99 46 -20.98 46 -22 46 C-22 52.27 -22 58.54 -22 65 C-23.32 65 -24.64 65 -26 65 C-26 56.09 -26 47.18 -26 38 C-28.92264434 36.53867783 -30.92463146 35.65900754 -34 35 C-34 33.68 -34 32.36 -34 31 C-32.68 31 -31.36 31 -30 31 C-30 29.68 -30 28.36 -30 27 C-27.36 27 -24.72 27 -22 27 C-22 25.68 -22 24.36 -22 23 C-19.69 23 -17.38 23 -15 23 C-15 21.68 -15 20.36 -15 19 C-16.32 19 -17.64 19 -19 19 C-19 16.69 -19 14.38 -19 12 C-17.68 12 -16.36 12 -15 12 C-15 10.68 -15 9.36 -15 8 C-12.36 8 -9.72 8 -7 8 C-7 6.68 -7 5.36 -7 4 C-5.68 4 -4.36 4 -3 4 C-3 5.32 -3 6.64 -3 8 C-2.01 8 -1.02 8 0 8 C0 5.36 0 2.72 0 0 Z " fill="#FEDAA8" transform="translate(71,19)"/>
<path d="M0 0 C1.32 0 2.64 0 4 0 C4 1.32 4 2.64 4 4 C4.99 4 5.98 4 7 4 C7 4.99 7 5.98 7 7 C11.95 7 16.9 7 22 7 C22 9.64 22 12.28 22 15 C25.96 15 29.92 15 34 15 C34 16.32 34 17.64 34 19 C32.68 19 31.36 19 30 19 C30 21.31 30 23.62 30 26 C31.32 26 32.64 26 34 26 C34 27.32 34 28.64 34 30 C32.68 30 31.36 30 30 30 C30 32.64 30 35.28 30 38 C32.64 38 35.28 38 38 38 C38 36.68 38 35.36 38 34 C39.98 34.495 39.98 34.495 42 35 C41.67 36.32 41.34 37.64 41 39 C40.34 39 39.68 39 39 39 C39.020625 39.969375 39.04125 40.93875 39.0625 41.9375 C39 45 39 45 38 46 C35.66702567 46.04092937 33.33294775 46.04241723 31 46 C31 46.66 31 47.32 31 48 C32.98 48.495 32.98 48.495 35 49 C35 49.99 35 50.98 35 52 C36.98 52.495 36.98 52.495 39 53 C39 53.99 39 54.98 39 56 C40.485 56.495 40.485 56.495 42 57 C42 57.99 42 58.98 42 60 C43.98 60.495 43.98 60.495 46 61 C46 61.66 46 62.32 46 63 C47.98 63.495 47.98 63.495 50 64 C50 64.99 50 65.98 50 67 C51.98 67.495 51.98 67.495 54 68 C54 69.32 54 70.64 54 72 C52.35 72 50.7 72 49 72 C49 70.68 49 69.36 49 68 C44.05 68 39.1 68 34 68 C34 69.32 34 70.64 34 72 C31.36 72 28.72 72 26 72 C26 79.59 26 87.18 26 95 C27.32 95 28.64 95 30 95 C30 97.31 30 99.62 30 102 C31.32 102 32.64 102 34 102 C34 103.32 34 104.64 34 106 C35.32 106 36.64 106 38 106 C38 110.95 38 115.9 38 121 C35.36 121 32.72 121 30 121 C30 122.32 30 123.64 30 125 C27.36 125 24.72 125 22 125 C22 123.68 22 122.36 22 121 C23.32 121 24.64 121 26 121 C26 119.68 26 118.36 26 117 C27.32 117 28.64 117 30 117 C30 116.01 30 115.02 30 114 C31.32 114 32.64 114 34 114 C34 112.68 34 111.36 34 110 C31.36 110 28.72 110 26 110 C26 108.68 26 107.36 26 106 C24.68 106 23.36 106 22 106 C22 107.32 22 108.64 22 110 C19.69 110 17.38 110 15 110 C15 111.32 15 112.64 15 114 C13.68 114 12.36 114 11 114 C11 114.99 11 115.98 11 117 C6.05 117 1.1 117 -4 117 C-4 114.69 -4 112.38 -4 110 C-5.32 110 -6.64 110 -8 110 C-8 108.68 -8 107.36 -8 106 C-10.31 106 -12.62 106 -15 106 C-15 107.32 -15 108.64 -15 110 C-16.32 110 -17.64 110 -19 110 C-19 107.36 -19 104.72 -19 102 C-20.32 102 -21.64 102 -23 102 C-23 104.64 -23 107.28 -23 110 C-25.64 110 -28.28 110 -31 110 C-31 108.68 -31 107.36 -31 106 C-33.31 106 -35.62 106 -38 106 C-38 104.68 -38 103.36 -38 102 C-35.69 102 -33.38 102 -31 102 C-31 99.69 -31 97.38 -31 95 C-28.36 95 -25.72 95 -23 95 C-23 92.36 -23 89.72 -23 87 C-21.68 87 -20.36 87 -19 87 C-19 90.63 -19 94.26 -19 98 C-16.69 98 -14.38 98 -12 98 C-12 99.32 -12 100.64 -12 102 C-3.09 102 5.82 102 15 102 C15 100.68 15 99.36 15 98 C16.32 98 17.64 98 19 98 C19 97.01 19 96.02 19 95 C19.99 95 20.98 95 22 95 C22 88.73 22 82.46 22 76 C21.01 76 20.02 76 19 76 C19 74.68 19 73.36 19 72 C10.09 72 1.18 72 -8 72 C-8 70.68 -8 69.36 -8 68 C-6.68 68 -5.36 68 -4 68 C-4 66.68 -4 65.36 -4 64 C-2.68 64 -1.36 64 0 64 C0 65.32 0 66.64 0 68 C2.31 68 4.62 68 7 68 C7 66.68 7 65.36 7 64 C8.32 64 9.64 64 11 64 C11 65.32 11 66.64 11 68 C12.32 68 13.64 68 15 68 C15 66.68 15 65.36 15 64 C17.31 64 19.62 64 22 64 C22 63.01 22 62.02 22 61 C23.32 61 24.64 61 26 61 C26 59.68 26 58.36 26 57 C22.37 57 18.74 57 15 57 C15 58.32 15 59.64 15 61 C8.73 61 2.46 61 -4 61 C-4 59.68 -4 58.36 -4 57 C0.95 57 5.9 57 11 57 C11 55.68 11 54.36 11 53 C14.63 53 18.26 53 22 53 C22 51.68 22 50.36 22 49 C23.32 49 24.64 49 26 49 C26 47.68 26 46.36 26 45 C27.32 45 28.64 45 30 45 C30 44.01 30 43.02 30 42 C28.68 42 27.36 42 26 42 C26 38.04 26 34.08 26 30 C24.68 30 23.36 30 22 30 C22 33.96 22 37.92 22 42 C21.01 42 20.02 42 19 42 C19 42.99 19 43.98 19 45 C17.68 45 16.36 45 15 45 C15 38.73 15 32.46 15 26 C16.32 26 17.64 26 19 26 C19 23.69 19 21.38 19 19 C17.68 19 16.36 19 15 19 C15 17.68 15 16.36 15 15 C11.37 15 7.74 15 4 15 C4 16.32 4 17.64 4 19 C2.68 19 1.36 19 0 19 C0 26.59 0 34.18 0 42 C-1.32 42 -2.64 42 -4 42 C-4 42.99 -4 43.98 -4 45 C-5.32 45 -6.64 45 -8 45 C-8 44.01 -8 43.02 -8 42 C-9.32 42 -10.64 42 -12 42 C-12 38.04 -12 34.08 -12 30 C-12.99 30 -13.98 30 -15 30 C-15 28.68 -15 27.36 -15 26 C-14.01 26 -13.02 26 -12 26 C-12 25.01 -12 24.02 -12 23 C-10.68 23 -9.36 23 -8 23 C-8 21.68 -8 20.36 -8 19 C-6.68 19 -5.36 19 -4 19 C-4 16.36 -4 13.72 -4 11 C-2.68 11 -1.36 11 0 11 C0 7.37 0 3.74 0 0 Z " fill="#A15F4D" transform="translate(83,50)"/>
<path d="M0 0 C12.87 0 25.74 0 39 0 C39 0.99 39 1.98 39 3 C41.64 3 44.28 3 47 3 C47 4.32 47 5.64 47 7 C48.32 7 49.64 7 51 7 C51 8.32 51 9.64 51 11 C52.32 11 53.64 11 55 11 C55 12.32 55 13.64 55 15 C55.99 15 56.98 15 58 15 C58 16.32 58 17.64 58 19 C59.32 19 60.64 19 62 19 C62 21.31 62 23.62 62 26 C63.32 26 64.64 26 66 26 C66 33.92 66 41.84 66 50 C64.68 50.33 63.36 50.66 62 51 C62 55.62 62 60.24 62 65 C60.68 65.33 59.36 65.66 58 66 C57 65 57 65 56.90234375 61.62109375 C56.90901631 60.22652923 56.92097468 58.83198257 56.9375 57.4375 C56.94201172 56.72658203 56.94652344 56.01566406 56.95117188 55.28320312 C56.96299136 53.52209987 56.98092737 51.76103964 57 50 C58.32 50 59.64 50 61 50 C61 47.36 61 44.72 61 42 C59.68 42 58.36 42 57 42 C57 43.32 57 44.64 57 46 C56.01 46 55.02 46 54 46 C54 39.73 54 33.46 54 27 C54.99 27 55.98 27 57 27 C57 24.69 57 22.38 57 20 C56.01 20 55.02 20 54 20 C54 18.68 54 17.36 54 16 C52.68 16 51.36 16 50 16 C50 14.68 50 13.36 50 12 C48.68 12 47.36 12 46 12 C46 10.68 46 9.36 46 8 C43.36 8 40.72 8 38 8 C38 10.64 38 13.28 38 16 C37.01 16 36.02 16 35 16 C35 18.31 35 20.62 35 23 C33.68 23 32.36 23 31 23 C31 19.37 31 15.74 31 12 C29.68 12 28.36 12 27 12 C27 10.68 27 9.36 27 8 C25.68 8 24.36 8 23 8 C23 11.96 23 15.92 23 20 C22.01 20 21.02 20 20 20 C20 16.04 20 12.08 20 8 C17.36 8 14.72 8 12 8 C12 12.95 12 17.9 12 23 C10.68 23 9.36 23 8 23 C8 16.73 8 10.46 8 4 C6.68 4 5.36 4 4 4 C4 6.64 4 9.28 4 12 C3.01 12 2.02 12 1 12 C1 10.68 1 9.36 1 8 C-0.32 8 -1.64 8 -3 8 C-3 9.32 -3 10.64 -3 12 C-5.64 12 -8.28 12 -11 12 C-11 13.32 -11 14.64 -11 16 C-12.32 16 -13.64 16 -15 16 C-15 18.31 -15 20.62 -15 23 C-13.68 23 -12.36 23 -11 23 C-11 24.32 -11 25.64 -11 27 C-13.31 27 -15.62 27 -18 27 C-18 28.32 -18 29.64 -18 31 C-20.64 31 -23.28 31 -26 31 C-26 32.32 -26 33.64 -26 35 C-27.32 35 -28.64 35 -30 35 C-30 36.32 -30 37.64 -30 39 C-28.8553125 39.185625 -28.8553125 39.185625 -27.6875 39.375 C-25 40 -25 40 -22 42 C-21.65942383 44.70556641 -21.65942383 44.70556641 -21.70703125 48.1015625 C-21.71669922 49.31328125 -21.72636719 50.525 -21.73632812 51.7734375 C-21.76146484 53.04445312 -21.78660156 54.31546875 -21.8125 55.625 C-21.83280273 57.543125 -21.83280273 57.543125 -21.85351562 59.5 C-21.88896804 62.66708282 -21.93838559 65.83333541 -22 69 C-20.68 69 -19.36 69 -18 69 C-18 62.73 -18 56.46 -18 50 C-17.01 50 -16.02 50 -15 50 C-15 56.27 -15 62.54 -15 69 C-13.68 69 -12.36 69 -11 69 C-11 70.32 -11 71.64 -11 73 C-9.68 73 -8.36 73 -7 73 C-7 68.05 -7 63.1 -7 58 C-5.68 58 -4.36 58 -3 58 C-3 60.31 -3 62.62 -3 65 C-1.68 65 -0.36 65 1 65 C1 71.27 1 77.54 1 84 C1.99 84 2.98 84 4 84 C4 85.32 4 86.64 4 88 C1.69 88 -0.62 88 -3 88 C-3 90.64 -3 93.28 -3 96 C-1.68 96 -0.36 96 1 96 C1 96.99 1 97.98 1 99 C1.99 99 2.98 99 4 99 C4 100.32 4 101.64 4 103 C1.69 103 -0.62 103 -3 103 C-3 105.64 -3 108.28 -3 111 C-4.32 111 -5.64 111 -7 111 C-7 109.68 -7 108.36 -7 107 C-8.32 107 -9.64 107 -11 107 C-11 104.36 -11 101.72 -11 99 C-12.32 99 -13.64 99 -15 99 C-15 100.32 -15 101.64 -15 103 C-15.99 103 -16.98 103 -18 103 C-18 104.32 -18 105.64 -18 107 C-19.32 107 -20.64 107 -22 107 C-22 109.64 -22 112.28 -22 115 C-23.32 115 -24.64 115 -26 115 C-26 117.31 -26 119.62 -26 122 C-27.32 122 -28.64 122 -30 122 C-30 124.64 -30 127.28 -30 130 C-31.32 130 -32.64 130 -34 130 C-34 130.99 -34 131.98 -34 133 C-35.32 133 -36.64 133 -38 133 C-37.505 131.02 -37.505 131.02 -37 129 C-36.34 129 -35.68 129 -35 129 C-35 126.69 -35 124.38 -35 122 C-33.02 121.505 -33.02 121.505 -31 121 C-31 119.02 -31 117.04 -31 115 C-29.02 114.505 -29.02 114.505 -27 114 C-27 111.69 -27 109.38 -27 107 C-25.02 106.505 -25.02 106.505 -23 106 C-22.67 104.68 -22.34 103.36 -22 102 C-21.01 102 -20.02 102 -19 102 C-18.67 100.68 -18.34 99.36 -18 98 C-17.34 98 -16.68 98 -16 98 C-16 96.02 -16 94.04 -16 92 C-14.02 91.505 -14.02 91.505 -12 91 C-11.67 89.68 -11.34 88.36 -11 87 C-8.69 87 -6.38 87 -4 87 C-4 85.02 -4 83.04 -4 81 C-5.32 80.67 -6.64 80.34 -8 80 C-8 79.34 -8 78.68 -8 78 C-9.32 77.67 -10.64 77.34 -12 77 C-12 76.01 -12 75.02 -12 74 C-12.66 74 -13.32 74 -14 74 C-14 75.98 -14 77.96 -14 80 C-15.9375 80.5625 -15.9375 80.5625 -18 81 C-19 80 -19 80 -19.0625 76.9375 C-19.041875 75.968125 -19.02125 74.99875 -19 74 C-20.32 73.67 -21.64 73.34 -23 73 C-23 72.01 -23 71.02 -23 70 C-24.32 69.67 -25.64 69.34 -27 69 C-27 60.42 -27 51.84 -27 43 C-28.98 43 -30.96 43 -33 43 C-33 45.31 -33 47.62 -33 50 C-34.9375 50.5625 -34.9375 50.5625 -37 51 C-38 50 -38 50 -38.09765625 47.93359375 C-38.08605469 47.10988281 -38.07445313 46.28617188 -38.0625 45.4375 C-38.05347656 44.61121094 -38.04445313 43.78492188 -38.03515625 42.93359375 C-38.02355469 42.29550781 -38.01195313 41.65742187 -38 41 C-37.01 41 -36.02 41 -35 41 C-35 38.69 -35 36.38 -35 34 C-33.68 34 -32.36 34 -31 34 C-31 32.68 -31 31.36 -31 30 C-29.68 30 -28.36 30 -27 30 C-27 28.68 -27 27.36 -27 26 C-25.68 26 -24.36 26 -23 26 C-23 24.68 -23 23.36 -23 22 C-21.68 22 -20.36 22 -19 22 C-19 19.69 -19 17.38 -19 15 C-18.01 15 -17.02 15 -16 15 C-16 13.68 -16 12.36 -16 11 C-14.68 11 -13.36 11 -12 11 C-12 9.68 -12 8.36 -12 7 C-10.68 7 -9.36 7 -8 7 C-8 5.68 -8 4.36 -8 3 C-5.36 3 -2.72 3 0 3 C0 2.01 0 1.02 0 0 Z " fill="#D99D7A" transform="translate(67,15)"/>
<path d="M0 0 C3.63 0 7.26 0 11 0 C11 1.32 11 2.64 11 4 C12.32 4 13.64 4 15 4 C15 6.31 15 8.62 15 11 C13.68 11 12.36 11 11 11 C11 17.27 11 23.54 11 30 C12.32 30 13.64 30 15 30 C15 29.01 15 28.02 15 27 C15.99 27 16.98 27 18 27 C18 23.04 18 19.08 18 15 C19.32 15 20.64 15 22 15 C22 18.96 22 22.92 22 27 C23.32 27 24.64 27 26 27 C26 27.99 26 28.98 26 30 C24.68 30 23.36 30 22 30 C22 31.32 22 32.64 22 34 C20.68 34 19.36 34 18 34 C18 35.32 18 36.64 18 38 C14.37 38 10.74 38 7 38 C7 39.32 7 40.64 7 42 C2.05 42 -2.9 42 -8 42 C-8 43.32 -8 44.64 -8 46 C-1.73 46 4.54 46 11 46 C11 44.68 11 43.36 11 42 C14.63 42 18.26 42 22 42 C22 43.32 22 44.64 22 46 C20.68 46 19.36 46 18 46 C18 46.99 18 47.98 18 49 C15.69 49 13.38 49 11 49 C11 50.32 11 51.64 11 53 C9.68 53 8.36 53 7 53 C7 51.68 7 50.36 7 49 C5.68 49 4.36 49 3 49 C3 50.32 3 51.64 3 53 C0.69 53 -1.62 53 -4 53 C-4 51.68 -4 50.36 -4 49 C-5.32 49 -6.64 49 -8 49 C-8 50.32 -8 51.64 -8 53 C-9.32 53 -10.64 53 -12 53 C-12 54.32 -12 55.64 -12 57 C-3.09 57 5.82 57 15 57 C15 58.32 15 59.64 15 61 C15.99 61 16.98 61 18 61 C18 65.95 18 70.9 18 76 C17.01 76 16.02 76 15 76 C15 74.68 15 73.36 15 72 C10.05 72 5.1 72 0 72 C0 73.32 0 74.64 0 76 C-3.96 76 -7.92 76 -12 76 C-12 74.68 -12 73.36 -12 72 C-14.31 72 -16.62 72 -19 72 C-19 70.68 -19 69.36 -19 68 C-20.32 68 -21.64 68 -23 68 C-23 63.05 -23 58.1 -23 53 C-20.69 53 -18.38 53 -16 53 C-16 51.68 -16 50.36 -16 49 C-16.99 49 -17.98 49 -19 49 C-19 48.01 -19 47.02 -19 46 C-20.32 46 -21.64 46 -23 46 C-23 43.36 -23 40.72 -23 38 C-20.69 38 -18.38 38 -16 38 C-16 36.68 -16 35.36 -16 34 C-16.99 34 -17.98 34 -19 34 C-19 27.73 -19 21.46 -19 15 C-18.01 15 -17.02 15 -16 15 C-16 18.96 -16 22.92 -16 27 C-14.68 27 -13.36 27 -12 27 C-12 27.99 -12 28.98 -12 30 C-10.68 30 -9.36 30 -8 30 C-8 29.01 -8 28.02 -8 27 C-6.68 27 -5.36 27 -4 27 C-4 19.41 -4 11.82 -4 4 C-2.68 4 -1.36 4 0 4 C0 2.68 0 1.36 0 0 Z " fill="#9C766B" transform="translate(87,65)"/>
<path d="M0 0 C1.32 0 2.64 0 4 0 C4 2.64 4 5.28 4 8 C5.32 8 6.64 8 8 8 C8 9.32 8 10.64 8 12 C9.32 12 10.64 12 12 12 C12 14.31 12 16.62 12 19 C13.32 19 14.64 19 16 19 C16 20.32 16 21.64 16 23 C18.31 23 20.62 23 23 23 C23 24.32 23 25.64 23 27 C26.96 27 30.92 27 35 27 C35 25.68 35 24.36 35 23 C39.95 23 44.9 23 50 23 C50 24.32 50 25.64 50 27 C50.99 27 51.98 27 53 27 C53 28.32 53 29.64 53 31 C52.01 31 51.02 31 50 31 C50 31.99 50 32.98 50 34 C48.68 34 47.36 34 46 34 C46 35.32 46 36.64 46 38 C37.09 38 28.18 38 19 38 C19 36.68 19 35.36 19 34 C16.69 34 14.38 34 12 34 C12 30.37 12 26.74 12 23 C10.68 23 9.36 23 8 23 C8 25.64 8 28.28 8 31 C5.36 31 2.72 31 0 31 C0 33.31 0 35.62 0 38 C-2.31 38 -4.62 38 -7 38 C-7 39.32 -7 40.64 -7 42 C-4.69 42 -2.38 42 0 42 C0 43.32 0 44.64 0 46 C2.64 46 5.28 46 8 46 C8 43.36 8 40.72 8 38 C9.32 38 10.64 38 12 38 C12 40.64 12 43.28 12 46 C13.32 46 14.64 46 16 46 C16 44.68 16 43.36 16 42 C18.31 42 20.62 42 23 42 C23 43.32 23 44.64 23 46 C24.32 46 25.64 46 27 46 C27 48.31 27 50.62 27 53 C28.32 53 29.64 53 31 53 C31 54.32 31 55.64 31 57 C27.04 57 23.08 57 19 57 C19 58.32 19 59.64 19 61 C18.01 61 17.02 61 16 61 C16 59.68 16 58.36 16 57 C14.68 57 13.36 57 12 57 C12 54.69 12 52.38 12 50 C10.68 50 9.36 50 8 50 C8 50.99 8 51.98 8 53 C3.05 53 -1.9 53 -7 53 C-7 54.32 -7 55.64 -7 57 C-8.32 57 -9.64 57 -11 57 C-11 58.32 -11 59.64 -11 61 C-12.32 61 -13.64 61 -15 61 C-15 61.99 -15 62.98 -15 64 C-18.96 64 -22.92 64 -27 64 C-27 61.69 -27 59.38 -27 57 C-25.02 56.505 -25.02 56.505 -23 56 C-23 48.74 -23 41.48 -23 34 C-21.68 34 -20.36 34 -19 34 C-19 33.01 -19 32.02 -19 31 C-17.68 31 -16.36 31 -15 31 C-15 28.36 -15 25.72 -15 23 C-13.68 23 -12.36 23 -11 23 C-11 20.69 -11 18.38 -11 16 C-9.68 16 -8.36 16 -7 16 C-7 13.36 -7 10.72 -7 8 C-5.68 8 -4.36 8 -3 8 C-3 6.68 -3 5.36 -3 4 C-2.01 4 -1.02 4 0 4 C0 2.68 0 1.36 0 0 Z " fill="#E8B18B" transform="translate(52,114)"/>
<path d="M0 0 C7.31753555 -0.36587678 7.31753555 -0.36587678 10.109375 1.13085938 C12 3 12 3 12.45410156 5.8190918 C12.42268066 7.49225464 12.42268066 7.49225464 12.390625 9.19921875 C12.37128906 11.01196289 12.37128906 11.01196289 12.3515625 12.86132812 C12.31804688 14.12396484 12.28453125 15.38660156 12.25 16.6875 C12.23195313 17.96173828 12.21390625 19.23597656 12.1953125 20.54882812 C12.14810441 23.69996841 12.08226384 26.8496114 12 30 C13.32 30 14.64 30 16 30 C16 23.73 16 17.46 16 11 C16.99 11 17.98 11 19 11 C19 17.27 19 23.54 19 30 C20.32 30 21.64 30 23 30 C23 31.32 23 32.64 23 34 C24.32 34 25.64 34 27 34 C27 29.05 27 24.1 27 19 C28.32 19 29.64 19 31 19 C31 21.31 31 23.62 31 26 C32.32 26 33.64 26 35 26 C35 32.27 35 38.54 35 45 C35.99 45 36.98 45 38 45 C38 46.32 38 47.64 38 49 C35.69 49 33.38 49 31 49 C31 51.64 31 54.28 31 57 C32.32 57 33.64 57 35 57 C35 57.99 35 58.98 35 60 C35.99 60 36.98 60 38 60 C38 61.32 38 62.64 38 64 C35.69 64 33.38 64 31 64 C31 66.64 31 69.28 31 72 C29.68 72 28.36 72 27 72 C27 70.68 27 69.36 27 68 C25.68 68 24.36 68 23 68 C23 65.36 23 62.72 23 60 C21.68 60 20.36 60 19 60 C19 61.32 19 62.64 19 64 C18.01 64 17.02 64 16 64 C16 65.32 16 66.64 16 68 C14.68 68 13.36 68 12 68 C12 70.64 12 73.28 12 76 C10.68 76 9.36 76 8 76 C8 78.31 8 80.62 8 83 C6.68 83 5.36 83 4 83 C4 85.64 4 88.28 4 91 C2.68 91 1.36 91 0 91 C0 91.99 0 92.98 0 94 C-1.32 94 -2.64 94 -4 94 C-3.67 92.68 -3.34 91.36 -3 90 C-2.34 90 -1.68 90 -1 90 C-1 87.69 -1 85.38 -1 83 C0.98 82.505 0.98 82.505 3 82 C3 80.02 3 78.04 3 76 C4.98 75.505 4.98 75.505 7 75 C7 72.69 7 70.38 7 68 C8.98 67.505 8.98 67.505 11 67 C11.33 65.68 11.66 64.36 12 63 C12.99 63 13.98 63 15 63 C15.33 61.68 15.66 60.36 16 59 C16.66 59 17.32 59 18 59 C18 57.02 18 55.04 18 53 C19.98 52.505 19.98 52.505 22 52 C22.33 50.68 22.66 49.36 23 48 C25.31 48 27.62 48 30 48 C30 46.02 30 44.04 30 42 C28.68 41.67 27.36 41.34 26 41 C26 40.34 26 39.68 26 39 C24.68 38.67 23.36 38.34 22 38 C22 37.01 22 36.02 22 35 C21.34 35 20.68 35 20 35 C20 36.98 20 38.96 20 41 C18.0625 41.5625 18.0625 41.5625 16 42 C15 41 15 41 14.9375 37.9375 C14.958125 36.968125 14.97875 35.99875 15 35 C13.68 34.67 12.36 34.34 11 34 C11 33.01 11 32.02 11 31 C9.68 30.67 8.36 30.34 7 30 C7 21.42 7 12.84 7 4 C5.02 4 3.04 4 1 4 C1 6.31 1 8.62 1 11 C-0.9375 11.5625 -0.9375 11.5625 -3 12 C-4 11 -4 11 -4.09765625 8.93359375 C-4.08605469 8.10988281 -4.07445313 7.28617188 -4.0625 6.4375 C-4.05347656 5.61121094 -4.04445313 4.78492188 -4.03515625 3.93359375 C-4.02355469 3.29550781 -4.01195313 2.65742187 -4 2 C-2.68 2.33 -1.36 2.66 0 3 C0 2.01 0 1.02 0 0 Z " fill="#774336" transform="translate(33,54)"/>
<path d="M0 0 C1.32 0 2.64 0 4 0 C4 3.63 4 7.26 4 11 C6.31 11 8.62 11 11 11 C11 12.32 11 13.64 11 15 C19.91 15 28.82 15 38 15 C38 13.68 38 12.36 38 11 C39.32 11 40.64 11 42 11 C42 10.01 42 9.02 42 8 C42.99 8 43.98 8 45 8 C45 5.36 45 2.72 45 0 C46.32 0 47.64 0 49 0 C49 2.64 49 5.28 49 8 C50.32 8 51.64 8 53 8 C53 10.31 53 12.62 53 15 C54.32 15 55.64 15 57 15 C57 16.32 57 17.64 57 19 C58.32 19 59.64 19 61 19 C61 23.95 61 28.9 61 34 C58.36 34 55.72 34 53 34 C53 35.32 53 36.64 53 38 C50.36 38 47.72 38 45 38 C45 36.68 45 35.36 45 34 C46.32 34 47.64 34 49 34 C49 32.68 49 31.36 49 30 C50.32 30 51.64 30 53 30 C53 29.01 53 28.02 53 27 C54.32 27 55.64 27 57 27 C57 25.68 57 24.36 57 23 C54.36 23 51.72 23 49 23 C49 21.68 49 20.36 49 19 C47.68 19 46.36 19 45 19 C45 20.32 45 21.64 45 23 C42.69 23 40.38 23 38 23 C38 24.32 38 25.64 38 27 C36.68 27 35.36 27 34 27 C34 27.99 34 28.98 34 30 C29.05 30 24.1 30 19 30 C19 27.69 19 25.38 19 23 C17.68 23 16.36 23 15 23 C15 21.68 15 20.36 15 19 C12.69 19 10.38 19 8 19 C8 20.32 8 21.64 8 23 C6.68 23 5.36 23 4 23 C4 20.36 4 17.72 4 15 C2.68 15 1.36 15 0 15 C0 17.64 0 20.28 0 23 C-2.64 23 -5.28 23 -8 23 C-8 21.68 -8 20.36 -8 19 C-10.31 19 -12.62 19 -15 19 C-15 17.68 -15 16.36 -15 15 C-12.69 15 -10.38 15 -8 15 C-8 12.69 -8 10.38 -8 8 C-5.36 8 -2.72 8 0 8 C0 5.36 0 2.72 0 0 Z " fill="#552827" transform="translate(60,137)"/>
<path d="M0 0 C7.59 0 15.18 0 23 0 C23 1.32 23 2.64 23 4 C25.31 4 27.62 4 30 4 C30 5.32 30 6.64 30 8 C31.32 8 32.64 8 34 8 C34 10.31 34 12.62 34 15 C32.68 15 31.36 15 30 15 C30 17.64 30 20.28 30 23 C31.32 23 32.64 23 34 23 C34 24.32 34 25.64 34 27 C32.68 27 31.36 27 30 27 C30 27.99 30 28.98 30 30 C29.01 30 28.02 30 27 30 C27 31.32 27 32.64 27 34 C25.68 34 24.36 34 23 34 C23 31.69 23 29.38 23 27 C21.68 27 20.36 27 19 27 C19 31.95 19 36.9 19 42 C17.68 42 16.36 42 15 42 C15 40.68 15 39.36 15 38 C13.68 38 12.36 38 11 38 C11 31.73 11 25.46 11 19 C10.01 19 9.02 19 8 19 C8 25.27 8 31.54 8 38 C6.68 38 5.36 38 4 38 C4 29.09 4 20.18 4 11 C1.07735566 9.53867783 -0.92463146 8.65900754 -4 8 C-4 6.68 -4 5.36 -4 4 C-2.68 4 -1.36 4 0 4 C0 2.68 0 1.36 0 0 Z " fill="#EBA171" transform="translate(41,46)"/>
<path d="M0 0 C1.32 0 2.64 0 4 0 C4 2.64 4 5.28 4 8 C5.32 8 6.64 8 8 8 C8 9.32 8 10.64 8 12 C9.32 12 10.64 12 12 12 C12 14.31 12 16.62 12 19 C13.32 19 14.64 19 16 19 C16 20.32 16 21.64 16 23 C18.31 23 20.62 23 23 23 C23 24.32 23 25.64 23 27 C26.96 27 30.92 27 35 27 C35 25.68 35 24.36 35 23 C39.95 23 44.9 23 50 23 C50 24.32 50 25.64 50 27 C50.99 27 51.98 27 53 27 C53 28.32 53 29.64 53 31 C52.01 31 51.02 31 50 31 C50 31.99 50 32.98 50 34 C48.68 34 47.36 34 46 34 C46 35.32 46 36.64 46 38 C37.09 38 28.18 38 19 38 C19 36.68 19 35.36 19 34 C16.69 34 14.38 34 12 34 C12 30.37 12 26.74 12 23 C10.68 23 9.36 23 8 23 C8 25.64 8 28.28 8 31 C5.36 31 2.72 31 0 31 C0 29.68 0 28.36 0 27 C-0.99 27 -1.98 27 -3 27 C-3 25.68 -3 24.36 -3 23 C-4.32 23 -5.64 23 -7 23 C-7 18.05 -7 13.1 -7 8 C-5.68 8 -4.36 8 -3 8 C-3 6.68 -3 5.36 -3 4 C-2.01 4 -1.02 4 0 4 C0 2.68 0 1.36 0 0 Z " fill="#C7B4AC" transform="translate(52,114)"/>
<path d="M0 0 C1.32 0 2.64 0 4 0 C4 1.32 4 2.64 4 4 C6.64 4 9.28 4 12 4 C12 5.32 12 6.64 12 8 C10.68 8 9.36 8 8 8 C8 8.99 8 9.98 8 11 C6.68 11 5.36 11 4 11 C4 12.32 4 13.64 4 15 C2.68 15 1.36 15 0 15 C0 16.32 0 17.64 0 19 C2.64 19 5.28 19 8 19 C8 17.68 8 16.36 8 15 C10.64 15 13.28 15 16 15 C16 17.31 16 19.62 16 22 C-11.72 22 -39.44 22 -68 22 C-68 21.01 -68 20.02 -68 19 C-66.68 19 -65.36 19 -64 19 C-64 17.68 -64 16.36 -64 15 C-62.68 15 -61.36 15 -60 15 C-60 13.68 -60 12.36 -60 11 C-55.05 11 -50.1 11 -45 11 C-45 10.01 -45 9.02 -45 8 C-43.68 8 -42.36 8 -41 8 C-41 10.31 -41 12.62 -41 15 C-39.68 15 -38.36 15 -37 15 C-37 16.32 -37 17.64 -37 19 C-36.01 19 -35.02 19 -34 19 C-34 17.68 -34 16.36 -34 15 C-30.04 15 -26.08 15 -22 15 C-22 13.68 -22 12.36 -22 11 C-18.37 11 -14.74 11 -11 11 C-11 10.01 -11 9.02 -11 8 C-9.68 8 -8.36 8 -7 8 C-7 6.68 -7 5.36 -7 4 C-4.69 4 -2.38 4 0 4 C0 2.68 0 1.36 0 0 Z " fill="#956D64" transform="translate(105,156)"/>
<path d="M0 0 C3.63 0 7.26 0 11 0 C11 1.32 11 2.64 11 4 C12.32 4 13.64 4 15 4 C15 6.31 15 8.62 15 11 C13.68 11 12.36 11 11 11 C11 17.27 11 23.54 11 30 C12.32 30 13.64 30 15 30 C15 29.01 15 28.02 15 27 C15.99 27 16.98 27 18 27 C18 23.04 18 19.08 18 15 C19.32 15 20.64 15 22 15 C22 18.96 22 22.92 22 27 C23.32 27 24.64 27 26 27 C26 27.99 26 28.98 26 30 C24.68 30 23.36 30 22 30 C22 31.32 22 32.64 22 34 C20.68 34 19.36 34 18 34 C18 35.32 18 36.64 18 38 C9.42 38 0.84 38 -8 38 C-8 36.68 -8 35.36 -8 34 C-9.32 34 -10.64 34 -12 34 C-12 32.68 -12 31.36 -12 30 C-10.68 30 -9.36 30 -8 30 C-8 29.01 -8 28.02 -8 27 C-6.68 27 -5.36 27 -4 27 C-4 19.41 -4 11.82 -4 4 C-2.68 4 -1.36 4 0 4 C0 2.68 0 1.36 0 0 Z " fill="#FFC6B2" transform="translate(87,65)"/>
<path d="M0 0 C2.64 0 5.28 0 8 0 C8 1.32 8 2.64 8 4 C9.32 4 10.64 4 12 4 C12 5.32 12 6.64 12 8 C13.32 8 14.64 8 16 8 C16 9.32 16 10.64 16 12 C16.99 12 17.98 12 19 12 C19 14.31 19 16.62 19 19 C18.01 19 17.02 19 16 19 C16 25.27 16 31.54 16 38 C16.99 38 17.98 38 19 38 C19 36.68 19 35.36 19 34 C20.32 34 21.64 34 23 34 C23 36.64 23 39.28 23 42 C21.68 42 20.36 42 19 42 C19.33 48.6 19.66 55.2 20 62 C18.68 61.67 17.36 61.34 16 61 C16 62.32 16 63.64 16 65 C13.36 65 10.72 65 8 65 C8 62.36 8 59.72 8 57 C9.32 57 10.64 57 12 57 C12 55.68 12 54.36 12 53 C10.68 53 9.36 53 8 53 C8 50.69 8 48.38 8 46 C9.32 46 10.64 46 12 46 C12 44.68 12 43.36 12 42 C8.04 42 4.08 42 0 42 C0 38.37 0 34.74 0 31 C1.32 31 2.64 31 4 31 C4 33.31 4 35.62 4 38 C5.32 38 6.64 38 8 38 C8 31.73 8 25.46 8 19 C9.32 19 10.64 19 12 19 C12 17.68 12 16.36 12 15 C10.68 15 9.36 15 8 15 C8 14.01 8 13.02 8 12 C5.36 12 2.72 12 0 12 C0 8.04 0 4.08 0 0 Z " fill="#EAA373" transform="translate(105,23)"/>
<path d="M0 0 C1.32 0 2.64 0 4 0 C4 1.32 4 2.64 4 4 C4.99 4 5.98 4 7 4 C7 4.99 7 5.98 7 7 C11.95 7 16.9 7 22 7 C22 10.96 22 14.92 22 19 C23.32 19 24.64 19 26 19 C26 21.31 26 23.62 26 26 C23.69 26 21.38 26 19 26 C19 23.69 19 21.38 19 19 C17.68 19 16.36 19 15 19 C15 17.68 15 16.36 15 15 C11.37 15 7.74 15 4 15 C4 16.32 4 17.64 4 19 C2.68 19 1.36 19 0 19 C0 26.59 0 34.18 0 42 C-1.32 42 -2.64 42 -4 42 C-4 42.99 -4 43.98 -4 45 C-5.32 45 -6.64 45 -8 45 C-8 44.01 -8 43.02 -8 42 C-9.32 42 -10.64 42 -12 42 C-12 38.04 -12 34.08 -12 30 C-12.99 30 -13.98 30 -15 30 C-15 28.68 -15 27.36 -15 26 C-14.01 26 -13.02 26 -12 26 C-12 25.01 -12 24.02 -12 23 C-10.68 23 -9.36 23 -8 23 C-8 21.68 -8 20.36 -8 19 C-6.68 19 -5.36 19 -4 19 C-4 16.36 -4 13.72 -4 11 C-2.68 11 -1.36 11 0 11 C0 7.37 0 3.74 0 0 Z " fill="#CB8274" transform="translate(83,50)"/>
<path d="M0 0 C0.33 0.99 0.66 1.98 1 3 C3.64 3 6.28 3 9 3 C9 4.32 9 5.64 9 7 C10.32 7 11.64 7 13 7 C13 8.32 13 9.64 13 11 C14.32 11 15.64 11 17 11 C17 12.32 17 13.64 17 15 C17.99 15 18.98 15 20 15 C20 16.32 20 17.64 20 19 C21.32 19 22.64 19 24 19 C24 21.31 24 23.62 24 26 C25.32 26 26.64 26 28 26 C28 33.92 28 41.84 28 50 C26.02 50.495 26.02 50.495 24 51 C24 55.62 24 60.24 24 65 C22.02 65.495 22.02 65.495 20 66 C19 65 19 65 18.90234375 61.62109375 C18.90901631 60.22652923 18.92097468 58.83198257 18.9375 57.4375 C18.94201172 56.72658203 18.94652344 56.01566406 18.95117188 55.28320312 C18.96299136 53.52209987 18.98092737 51.76103964 19 50 C20.32 50 21.64 50 23 50 C23 47.36 23 44.72 23 42 C21.68 42 20.36 42 19 42 C19 43.32 19 44.64 19 46 C18.01 46 17.02 46 16 46 C16 39.73 16 33.46 16 27 C16.99 27 17.98 27 19 27 C19 24.69 19 22.38 19 20 C18.01 20 17.02 20 16 20 C16 18.68 16 17.36 16 16 C14.68 16 13.36 16 12 16 C12 14.68 12 13.36 12 12 C10.68 12 9.36 12 8 12 C8 10.68 8 9.36 8 8 C5.36 8 2.72 8 0 8 C0 6.68 0 5.36 0 4 C-0.99 4 -1.98 4 -3 4 C-3 5.32 -3 6.64 -3 8 C-4.32 8 -5.64 8 -7 8 C-7 6.68 -7 5.36 -7 4 C-11.95 4 -16.9 4 -22 4 C-22 3.01 -22 2.02 -22 1 C-14.74 0.67 -7.48 0.34 0 0 Z " fill="#915744" transform="translate(105,15)"/>
<path d="M0 0 C3.96 0 7.92 0 12 0 C12 1.32 12 2.64 12 4 C12.99 4 13.98 4 15 4 C15 8.95 15 13.9 15 19 C14.01 19 13.02 19 12 19 C12 17.68 12 16.36 12 15 C7.05 15 2.1 15 -3 15 C-3 16.32 -3 17.64 -3 19 C-6.96 19 -10.92 19 -15 19 C-15 17.68 -15 16.36 -15 15 C-17.31 15 -19.62 15 -22 15 C-22 13.68 -22 12.36 -22 11 C-23.32 11 -24.64 11 -26 11 C-26 8.69 -26 6.38 -26 4 C-17.42 4 -8.84 4 0 4 C0 2.68 0 1.36 0 0 Z " fill="#EFE1D6" transform="translate(90,122)"/>
<path d="M0 0 C4.95 0 9.9 0 15 0 C15 1.32 15 2.64 15 4 C16.65 4 18.3 4 20 4 C20.33 5.32 20.66 6.64 21 8 C20.34 8 19.68 8 19 8 C19 11.63 19 15.26 19 19 C20.32 19 21.64 19 23 19 C23 20.32 23 21.64 23 23 C23.99 23 24.98 23 26 23 C26 24.32 26 25.64 26 27 C25.01 27 24.02 27 23 27 C23 27.99 23 28.98 23 30 C21.68 30 20.36 30 19 30 C19 29.01 19 28.02 19 27 C17.68 27 16.36 27 15 27 C15 25.68 15 24.36 15 23 C12.36 23 9.72 23 7 23 C7 21.68 7 20.36 7 19 C6.01 19 5.02 19 4 19 C4 17.68 4 16.36 4 15 C2.68 15 1.36 15 0 15 C0 12.69 0 10.38 0 8 C-1.32 8 -2.64 8 -4 8 C-4 11.63 -4 15.26 -4 19 C-5.32 19 -6.64 19 -8 19 C-8 14.05 -8 9.1 -8 4 C-5.36 4 -2.72 4 0 4 C0 2.68 0 1.36 0 0 Z " fill="#D2B195" transform="translate(117,118)"/>
<path d="M0 0 C1.32 0 2.64 0 4 0 C4 2.31 4 4.62 4 7 C5.32 7 6.64 7 8 7 C8 8.32 8 9.64 8 11 C8.99 11 9.98 11 11 11 C11 14.63 11 18.26 11 22 C8.69 22 6.38 22 4 22 C4 23.32 4 24.64 4 26 C6.31 26 8.62 26 11 26 C11 27.32 11 28.64 11 30 C8.69 30 6.38 30 4 30 C4 31.32 4 32.64 4 34 C2.68 34 1.36 34 0 34 C0 34.99 0 35.98 0 37 C-1.32 37 -2.64 37 -4 37 C-4 36.01 -4 35.02 -4 34 C-5.32 34 -6.64 34 -8 34 C-8 31.36 -8 28.72 -8 26 C-9.32 26.33 -10.64 26.66 -12 27 C-12 24.03 -12 21.06 -12 18 C-10.68 18 -9.36 18 -8 18 C-8 17.01 -8 16.02 -8 15 C-6.68 15 -5.36 15 -4 15 C-4 12.36 -4 9.72 -4 7 C-2.68 7 -1.36 7 0 7 C0 4.69 0 2.38 0 0 Z " fill="#D4887D" transform="translate(41,130)"/>
<path d="M0 0 C1.32 0 2.64 0 4 0 C4 1.32 4 2.64 4 4 C6.64 4 9.28 4 12 4 C12 5.32 12 6.64 12 8 C13.32 8 14.64 8 16 8 C16 12.95 16 17.9 16 23 C13.36 23 10.72 23 8 23 C8 24.32 8 25.64 8 27 C5.36 27 2.72 27 0 27 C0 25.68 0 24.36 0 23 C1.32 23 2.64 23 4 23 C4 21.68 4 20.36 4 19 C5.32 19 6.64 19 8 19 C8 18.01 8 17.02 8 16 C9.32 16 10.64 16 12 16 C12 14.68 12 13.36 12 12 C9.36 12 6.72 12 4 12 C4 10.68 4 9.36 4 8 C2.68 8 1.36 8 0 8 C0 9.32 0 10.64 0 12 C-2.31 12 -4.62 12 -7 12 C-7 13.32 -7 14.64 -7 16 C-8.32 16 -9.64 16 -11 16 C-11 16.99 -11 17.98 -11 19 C-15.95 19 -20.9 19 -26 19 C-26 16.69 -26 14.38 -26 12 C-27.32 12 -28.64 12 -30 12 C-30 10.68 -30 9.36 -30 8 C-21.09 8 -12.18 8 -3 8 C-3 6.68 -3 5.36 -3 4 C-2.01 4 -1.02 4 0 4 C0 2.68 0 1.36 0 0 Z " fill="#845554" transform="translate(105,148)"/>
<path d="M0 0 C7.31753555 -0.36587678 7.31753555 -0.36587678 10.109375 1.13085938 C12 3 12 3 12.45410156 5.8190918 C12.42268066 7.49225464 12.42268066 7.49225464 12.390625 9.19921875 C12.37128906 11.01196289 12.37128906 11.01196289 12.3515625 12.86132812 C12.31804688 14.12396484 12.28453125 15.38660156 12.25 16.6875 C12.23195313 17.96173828 12.21390625 19.23597656 12.1953125 20.54882812 C12.14810441 23.69996841 12.08226384 26.8496114 12 30 C13.32 30 14.64 30 16 30 C16 23.73 16 17.46 16 11 C16.99 11 17.98 11 19 11 C19 17.27 19 23.54 19 30 C20.32 30 21.64 30 23 30 C23 31.32 23 32.64 23 34 C24.32 34 25.64 34 27 34 C27 29.05 27 24.1 27 19 C28.32 19 29.64 19 31 19 C31 26.26 31 33.52 31 41 C29.02 41.495 29.02 41.495 27 42 C26.67 41.01 26.34 40.02 26 39 C23.98491642 38.26676204 23.98491642 38.26676204 22 38 C22 37.01 22 36.02 22 35 C21.34 35 20.68 35 20 35 C20 36.98 20 38.96 20 41 C18.0625 41.5625 18.0625 41.5625 16 42 C15 41 15 41 14.9375 37.9375 C14.958125 36.968125 14.97875 35.99875 15 35 C13.68 34.67 12.36 34.34 11 34 C11 33.01 11 32.02 11 31 C9.68 30.67 8.36 30.34 7 30 C7 21.42 7 12.84 7 4 C5.02 4 3.04 4 1 4 C1 6.31 1 8.62 1 11 C-0.9375 11.5625 -0.9375 11.5625 -3 12 C-4 11 -4 11 -4.09765625 8.93359375 C-4.08605469 8.10988281 -4.07445313 7.28617188 -4.0625 6.4375 C-4.05347656 5.61121094 -4.04445313 4.78492188 -4.03515625 3.93359375 C-4.02355469 3.29550781 -4.01195313 2.65742187 -4 2 C-2.68 2.33 -1.36 2.66 0 3 C0 2.01 0 1.02 0 0 Z " fill="#A45F41" transform="translate(33,54)"/>
<path d="M0 0 C3.96 0 7.92 0 12 0 C12 0.99 12 1.98 12 3 C15.63 3 19.26 3 23 3 C23 4.32 23 5.64 23 7 C19.37 7 15.74 7 12 7 C12 8.32 12 9.64 12 11 C9.36 11 6.72 11 4 11 C4 15.95 4 20.9 4 26 C2.68 26 1.36 26 0 26 C0 22.37 0 18.74 0 15 C-0.99 15 -1.98 15 -3 15 C-3 13.68 -3 12.36 -3 11 C-11.91 11 -20.82 11 -30 11 C-30 9.68 -30 8.36 -30 7 C-28.68 7 -27.36 7 -26 7 C-26 5.68 -26 4.36 -26 3 C-24.68 3 -23.36 3 -22 3 C-22 4.32 -22 5.64 -22 7 C-19.69 7 -17.38 7 -15 7 C-15 5.68 -15 4.36 -15 3 C-13.68 3 -12.36 3 -11 3 C-11 4.32 -11 5.64 -11 7 C-9.68 7 -8.36 7 -7 7 C-7 5.68 -7 4.36 -7 3 C-4.69 3 -2.38 3 0 3 C0 2.01 0 1.02 0 0 Z " fill="#966055" transform="translate(105,111)"/>
<path d="M0 0 C4.95 0 9.9 0 15 0 C15 2.31 15 4.62 15 7 C13.68 7 12.36 7 11 7 C11 9.64 11 12.28 11 15 C12.32 15 13.64 15 15 15 C15 16.32 15 17.64 15 19 C13.68 19 12.36 19 11 19 C11 19.99 11 20.98 11 22 C10.01 22 9.02 22 8 22 C8 23.32 8 24.64 8 26 C6.68 26 5.36 26 4 26 C4 23.69 4 21.38 4 19 C2.68 19 1.36 19 0 19 C0 23.95 0 28.9 0 34 C-1.32 34 -2.64 34 -4 34 C-4 26.41 -4 18.82 -4 11 C-2.68 11 -1.36 11 0 11 C0 9.68 0 8.36 0 7 C-2.64 7 -5.28 7 -8 7 C-8 5.68 -8 4.36 -8 3 C-5.36 3 -2.72 3 0 3 C0 2.01 0 1.02 0 0 Z " fill="#D98F63" transform="translate(60,54)"/>
<path d="M0 0 C1.32 0 2.64 0 4 0 C4 2.64 4 5.28 4 8 C5.32 8 6.64 8 8 8 C8 9.32 8 10.64 8 12 C9.32 12 10.64 12 12 12 C12 15.63 12 19.26 12 23 C10.68 23 9.36 23 8 23 C8 25.64 8 28.28 8 31 C5.36 31 2.72 31 0 31 C0 29.68 0 28.36 0 27 C-0.99 27 -1.98 27 -3 27 C-3 25.68 -3 24.36 -3 23 C-4.32 23 -5.64 23 -7 23 C-7 18.05 -7 13.1 -7 8 C-5.68 8 -4.36 8 -3 8 C-3 6.68 -3 5.36 -3 4 C-2.01 4 -1.02 4 0 4 C0 2.68 0 1.36 0 0 Z " fill="#9E7B6B" transform="translate(52,114)"/>
<path d="M0 0 C3.96 0 7.92 0 12 0 C12 2.64 12 5.28 12 8 C12.99 8 13.98 8 15 8 C15 11.63 15 15.26 15 19 C14.01 19 13.02 19 12 19 C12 19.99 12 20.98 12 22 C6.72 22 1.44 22 -4 22 C-4 16.06 -4 10.12 -4 4 C-2.68 4 -1.36 4 0 4 C0 2.68 0 1.36 0 0 Z " fill="#FFC6B2" transform="translate(128,156)"/>
<path d="M0 0 C3.63 0 7.26 0 11 0 C11 1.32 11 2.64 11 4 C12.32 4 13.64 4 15 4 C15 6.31 15 8.62 15 11 C13.68 11 12.36 11 11 11 C11 16.28 11 21.56 11 27 C9.68 27 8.36 27 7 27 C7 25.68 7 24.36 7 23 C5.68 23 4.36 23 3 23 C3 21.68 3 20.36 3 19 C2.01 19 1.02 19 0 19 C0 20.32 0 21.64 0 23 C-1.32 23 -2.64 23 -4 23 C-4 16.73 -4 10.46 -4 4 C-2.68 4 -1.36 4 0 4 C0 2.68 0 1.36 0 0 Z " fill="#EFA698" transform="translate(87,65)"/>
<path d="M0 0 C0.99 0.33 1.98 0.66 3 1 C3 2.98 3 4.96 3 7 C3.99 7.33 4.98 7.66 6 8 C6 8.99 6 9.98 6 11 C7.32 11.33 8.64 11.66 10 12 C10 15.96 10 19.92 10 24 C8.68 24 7.36 24 6 24 C6 28.62 6 33.24 6 38 C7.32 38.33 8.64 38.66 10 39 C10 40.98 10 42.96 10 45 C11.32 45.33 12.64 45.66 14 46 C14 46.99 14 47.98 14 49 C15.32 49.33 16.64 49.66 18 50 C18 50.99 18 51.98 18 53 C12.72 53 7.44 53 2 53 C2 52.01 2 51.02 2 50 C2.99 50 3.98 50 5 50 C5 46.37 5 42.74 5 39 C4.01 39 3.02 39 2 39 C2 32.73 2 26.46 2 20 C2.99 20 3.98 20 5 20 C5 18.68 5 17.36 5 16 C4.01 16 3.02 16 2 16 C2 14.68 2 13.36 2 12 C0.68 12 -0.64 12 -2 12 C-2 8.37 -2 4.74 -2 1 C-1.34 0.67 -0.68 0.34 0 0 Z " fill="#7E4D40" transform="translate(138,125)"/>
<path d="M0 0 C3.96 0 7.92 0 12 0 C12 1.32 12 2.64 12 4 C10.68 4 9.36 4 8 4 C8 6.31 8 8.62 8 11 C9.32 11 10.64 11 12 11 C12 12.32 12 13.64 12 15 C10.68 15 9.36 15 8 15 C8 18.96 8 22.92 8 27 C6.68 27 5.36 27 4 27 C4 23.04 4 19.08 4 15 C2.68 15 1.36 15 0 15 C0 18.96 0 22.92 0 27 C-0.99 27 -1.98 27 -3 27 C-3 27.99 -3 28.98 -3 30 C-4.32 30 -5.64 30 -7 30 C-7 23.73 -7 17.46 -7 11 C-3.37 11 0.26 11 4 11 C4 8.69 4 6.38 4 4 C2.68 4 1.36 4 0 4 C0 2.68 0 1.36 0 0 Z " fill="#91523D" transform="translate(105,65)"/>
<path d="M0 0 C1.32 0 2.64 0 4 0 C4 2.64 4 5.28 4 8 C5.32 8 6.64 8 8 8 C8 6.68 8 5.36 8 4 C10.31 4 12.62 4 15 4 C15 5.32 15 6.64 15 8 C16.32 8 17.64 8 19 8 C19 10.31 19 12.62 19 15 C20.32 15 21.64 15 23 15 C23 16.32 23 17.64 23 19 C19.04 19 15.08 19 11 19 C11 20.32 11 21.64 11 23 C10.01 23 9.02 23 8 23 C8 21.68 8 20.36 8 19 C6.68 19 5.36 19 4 19 C4 16.69 4 14.38 4 12 C1.36 12 -1.28 12 -4 12 C-4 10.68 -4 9.36 -4 8 C-2.68 8 -1.36 8 0 8 C0 5.36 0 2.72 0 0 Z " fill="#A98775" transform="translate(60,152)"/>
<path d="M0 0 C2.475 0.495 2.475 0.495 5 1 C5 3.64 5 6.28 5 9 C2.36 9 -0.28 9 -3 9 C-3 10.32 -3 11.64 -3 13 C-4.32 13 -5.64 13 -7 13 C-7 15.31 -7 17.62 -7 20 C-5.68 20 -4.36 20 -3 20 C-3 21.32 -3 22.64 -3 24 C-5.31 24 -7.62 24 -10 24 C-10 25.32 -10 26.64 -10 28 C-12.64 28 -15.28 28 -18 28 C-18 29.32 -18 30.64 -18 32 C-19.32 32 -20.64 32 -22 32 C-22 33.32 -22 34.64 -22 36 C-23.32 36 -24.64 36 -26 36 C-26 36.99 -26 37.98 -26 39 C-26.66 38.67 -27.32 38.34 -28 38 C-27.67 35.69 -27.34 33.38 -27 31 C-25.68 31 -24.36 31 -23 31 C-23 29.68 -23 28.36 -23 27 C-21.68 27 -20.36 27 -19 27 C-19 25.68 -19 24.36 -19 23 C-17.68 23 -16.36 23 -15 23 C-15 21.68 -15 20.36 -15 19 C-13.68 19 -12.36 19 -11 19 C-11 16.69 -11 14.38 -11 12 C-10.01 12 -9.02 12 -8 12 C-8 10.68 -8 9.36 -8 8 C-6.68 8 -5.36 8 -4 8 C-4 6.68 -4 5.36 -4 4 C-2.68 4 -1.36 4 0 4 C0 2.68 0 1.36 0 0 Z " fill="#B17051" transform="translate(59,18)"/>
<path d="M0 0 C1.32 0 2.64 0 4 0 C4 6.27 4 12.54 4 19 C4.99 19 5.98 19 7 19 C7 20.32 7 21.64 7 23 C4.69 23 2.38 23 0 23 C0 25.64 0 28.28 0 31 C1.32 31 2.64 31 4 31 C4 31.99 4 32.98 4 34 C4.99 34 5.98 34 7 34 C7 35.32 7 36.64 7 38 C3.37 38 -0.26 38 -4 38 C-4 35.69 -4 33.38 -4 31 C-5.32 31 -6.64 31 -8 31 C-8 29.68 -8 28.36 -8 27 C-9.32 26.67 -10.64 26.34 -12 26 C-11.01 26 -10.02 26 -9 26 C-8.67 24.68 -8.34 23.36 -8 22 C-5.69 22 -3.38 22 -1 22 C-0.67 14.74 -0.34 7.48 0 0 Z " fill="#884F3C" transform="translate(64,80)"/>
<path d="M0 0 C1.32 0 2.64 0 4 0 C4 1.32 4 2.64 4 4 C6.64 4 9.28 4 12 4 C12 5.32 12 6.64 12 8 C10.68 8 9.36 8 8 8 C8 8.99 8 9.98 8 11 C6.68 11 5.36 11 4 11 C4 12.32 4 13.64 4 15 C1.69 15 -0.62 15 -3 15 C-3 16.32 -3 17.64 -3 19 C-6.96 19 -10.92 19 -15 19 C-15 17.68 -15 16.36 -15 15 C-12.36 15 -9.72 15 -7 15 C-7 13.68 -7 12.36 -7 11 C-8.32 11 -9.64 11 -11 11 C-11 10.01 -11 9.02 -11 8 C-9.68 8 -8.36 8 -7 8 C-7 6.68 -7 5.36 -7 4 C-4.69 4 -2.38 4 0 4 C0 2.68 0 1.36 0 0 Z " fill="#A68473" transform="translate(105,156)"/>
<path d="M0 0 C4.95 0 9.9 0 15 0 C15 2.31 15 4.62 15 7 C17.64 7 20.28 7 23 7 C23 9.64 23 12.28 23 15 C19.04 15 15.08 15 11 15 C11 13.68 11 12.36 11 11 C8.69 11 6.38 11 4 11 C4 9.68 4 8.36 4 7 C2.68 7 1.36 7 0 7 C0 4.69 0 2.38 0 0 Z " fill="#FFFFCB" transform="translate(64,126)"/>
<path d="M0 0 C4.95 0 9.9 0 15 0 C15 1.32 15 2.64 15 4 C15.99 4 16.98 4 18 4 C18 5.32 18 6.64 18 8 C17.01 8 16.02 8 15 8 C15 8.99 15 9.98 15 11 C13.68 11 12.36 11 11 11 C11 12.32 11 13.64 11 15 C8.36 15 5.72 15 3 15 C3 13.68 3 12.36 3 11 C2.01 11 1.02 11 0 11 C0 10.01 0 9.02 0 8 C-1.32 8 -2.64 8 -4 8 C-4 6.68 -4 5.36 -4 4 C-2.68 4 -1.36 4 0 4 C0 2.68 0 1.36 0 0 Z " fill="#967B7B" transform="translate(87,137)"/>
<path d="M0 0 C2.64 0 5.28 0 8 0 C8 1.32 8 2.64 8 4 C9.32 4 10.64 4 12 4 C12 5.32 12 6.64 12 8 C13.32 8 14.64 8 16 8 C16 9.32 16 10.64 16 12 C16.99 12 17.98 12 19 12 C19 14.31 19 16.62 19 19 C18.01 19 17.02 19 16 19 C16 20.32 16 21.64 16 23 C14.68 23 13.36 23 12 23 C12 20.36 12 17.72 12 15 C10.68 15 9.36 15 8 15 C8 14.01 8 13.02 8 12 C5.36 12 2.72 12 0 12 C0 8.04 0 4.08 0 0 Z " fill="#ECB289" transform="translate(105,23)"/>
<path d="M0 0 C1.32 0 2.64 0 4 0 C4 2.64 4 5.28 4 8 C5.32 8 6.64 8 8 8 C8 10.31 8 12.62 8 15 C6.68 15 5.36 15 4 15 C4 13.68 4 12.36 4 11 C2.68 11 1.36 11 0 11 C0 12.32 0 13.64 0 15 C-0.99 15 -1.98 15 -3 15 C-3 16.32 -3 17.64 -3 19 C-11.91 19 -20.82 19 -30 19 C-30 17.68 -30 16.36 -30 15 C-22.41 15 -14.82 15 -7 15 C-7 13.68 -7 12.36 -7 11 C-5.68 11 -4.36 11 -3 11 C-3 10.01 -3 9.02 -3 8 C-2.01 8 -1.02 8 0 8 C0 5.36 0 2.72 0 0 Z " fill="#552419" transform="translate(105,137)"/>
<path d="M0 0 C0 7.92 0 15.84 0 24 C-1.32 24.33 -2.64 24.66 -4 25 C-4 29.62 -4 34.24 -4 39 C-5.98 39.495 -5.98 39.495 -8 40 C-9 39 -9 39 -9.09765625 35.62109375 C-9.09098369 34.22652923 -9.07902532 32.83198257 -9.0625 31.4375 C-9.05798828 30.72658203 -9.05347656 30.01566406 -9.04882812 29.28320312 C-9.03700864 27.52209987 -9.01907263 25.76103964 -9 24 C-7.68 24 -6.36 24 -5 24 C-5 19.05 -5 14.1 -5 9 C-6.32 9 -7.64 9 -9 9 C-9 7.68 -9 6.36 -9 5 C-7.68 5 -6.36 5 -5 5 C-5 3.68 -5 2.36 -5 1 C-3 0 -3 0 0 0 Z " fill="#8F513D" transform="translate(133,41)"/>
<path d="M0 0 C2.64 0 5.28 0 8 0 C8 1.32 8 2.64 8 4 C14.27 4 20.54 4 27 4 C27 2.68 27 1.36 27 0 C30.63 0 34.26 0 38 0 C38 1.32 38 2.64 38 4 C36.68 4 35.36 4 34 4 C34 4.99 34 5.98 34 7 C31.69 7 29.38 7 27 7 C27 8.32 27 9.64 27 11 C25.68 11 24.36 11 23 11 C23 9.68 23 8.36 23 7 C21.68 7 20.36 7 19 7 C19 8.32 19 9.64 19 11 C16.69 11 14.38 11 12 11 C12 9.68 12 8.36 12 7 C9.36 7 6.72 7 4 7 C4 6.01 4 5.02 4 4 C2.68 4 1.36 4 0 4 C0 2.68 0 1.36 0 0 Z " fill="#BD736B" transform="translate(71,107)"/>
<path d="M0 0 C1.32 0 2.64 0 4 0 C4 8.58 4 17.16 4 26 C2.68 26 1.36 26 0 26 C0 25.01 0 24.02 0 23 C-1.32 23 -2.64 23 -4 23 C-4 19.04 -4 15.08 -4 11 C-4.99 11 -5.98 11 -7 11 C-7 9.68 -7 8.36 -7 7 C-6.01 7 -5.02 7 -4 7 C-4 6.01 -4 5.02 -4 4 C-2.68 4 -1.36 4 0 4 C0 2.68 0 1.36 0 0 Z " fill="#552419" transform="translate(75,69)"/>
<path d="M0 0 C2.97 0 5.94 0 9 0 C9 0.99 9 1.98 9 3 C9.99 3.33 10.98 3.66 12 4 C12 4.99 12 5.98 12 7 C13.32 7.33 14.64 7.66 16 8 C16 8.66 16 9.32 16 10 C17.32 10.33 18.64 10.66 20 11 C20 11.99 20 12.98 20 14 C21.32 14.33 22.64 14.66 24 15 C24 16.32 24 17.64 24 19 C22.35 19 20.7 19 19 19 C19 17.68 19 16.36 19 15 C17.68 15 16.36 15 15 15 C15 13.68 15 12.36 15 11 C11.37 11 7.74 11 4 11 C4 10.01 4 9.02 4 8 C1.36 8 -1.28 8 -4 8 C-4 6.68 -4 5.36 -4 4 C-2.68 4 -1.36 4 0 4 C0 2.68 0 1.36 0 0 Z " fill="#82483F" transform="translate(113,103)"/>
<path d="M0 0 C3.63 0 7.26 0 11 0 C11.33 5.28 11.66 10.56 12 16 C10.68 15.67 9.36 15.34 8 15 C8 16.32 8 17.64 8 19 C5.36 19 2.72 19 0 19 C0 16.36 0 13.72 0 11 C1.32 11 2.64 11 4 11 C4 9.68 4 8.36 4 7 C2.68 7 1.36 7 0 7 C0 4.69 0 2.38 0 0 Z " fill="#CE855C" transform="translate(113,69)"/>
<path d="M0 0 C1.32 0 2.64 0 4 0 C4 1.32 4 2.64 4 4 C5.32 4 6.64 4 8 4 C8 8.95 8 13.9 8 19 C5.36 19 2.72 19 0 19 C0 20.32 0 21.64 0 23 C-2.64 23 -5.28 23 -8 23 C-8 21.68 -8 20.36 -8 19 C-6.68 19 -5.36 19 -4 19 C-4 17.68 -4 16.36 -4 15 C-2.68 15 -1.36 15 0 15 C0 14.01 0 13.02 0 12 C1.32 12 2.64 12 4 12 C4 10.68 4 9.36 4 8 C1.36 8 -1.28 8 -4 8 C-4 6.68 -4 5.36 -4 4 C-2.68 4 -1.36 4 0 4 C0 2.68 0 1.36 0 0 Z " fill="#6A3729" transform="translate(113,152)"/>
<path d="M0 0 C3.96 0 7.92 0 12 0 C12 2.64 12 5.28 12 8 C8.04 8 4.08 8 0 8 C0 11.63 0 15.26 0 19 C1.32 19 2.64 19 4 19 C4 19.99 4 20.98 4 22 C1.36 22 -1.28 22 -4 22 C-4 16.06 -4 10.12 -4 4 C-2.68 4 -1.36 4 0 4 C0 2.68 0 1.36 0 0 Z " fill="#D98D81" transform="translate(128,156)"/>
<path d="M0 0 C3.63 0 7.26 0 11 0 C11 2.64 11 5.28 11 8 C8.69 8 6.38 8 4 8 C4 9.32 4 10.64 4 12 C2.68 12 1.36 12 0 12 C0 10.68 0 9.36 0 8 C-1.32 8 -2.64 8 -4 8 C-4 11.63 -4 15.26 -4 19 C-5.32 19 -6.64 19 -8 19 C-8 14.05 -8 9.1 -8 4 C-5.36 4 -2.72 4 0 4 C0 2.68 0 1.36 0 0 Z " fill="#FFE1B6" transform="translate(117,118)"/>
<path d="M0 0 C1.32 0 2.64 0 4 0 C4 1.32 4 2.64 4 4 C7.63 4 11.26 4 15 4 C15 5.32 15 6.64 15 8 C16.32 8 17.64 8 19 8 C19 8.99 19 9.98 19 11 C10.09 11 1.18 11 -8 11 C-8 10.01 -8 9.02 -8 8 C-6.68 8 -5.36 8 -4 8 C-4 6.68 -4 5.36 -4 4 C-2.68 4 -1.36 4 0 4 C0 2.68 0 1.36 0 0 Z " fill="#AD6C57" transform="translate(45,167)"/>
<path d="M0 0 C2.64 0 5.28 0 8 0 C8 3.63 8 7.26 8 11 C9.32 11 10.64 11 12 11 C12 12.32 12 13.64 12 15 C8.04 15 4.08 15 0 15 C0 13.68 0 12.36 0 11 C-1.32 11 -2.64 11 -4 11 C-4 8.69 -4 6.38 -4 4 C-2.68 4 -1.36 4 0 4 C0 2.68 0 1.36 0 0 Z " fill="#EAA171" transform="translate(56,27)"/>
<path d="M0 0 C3.63 0 7.26 0 11 0 C11 1.32 11 2.64 11 4 C12.32 4 13.64 4 15 4 C15 6.31 15 8.62 15 11 C10.05 11 5.1 11 0 11 C0 7.37 0 3.74 0 0 Z " fill="#FFC6B2" transform="translate(87,65)"/>
<path d="M0 0 C3.63 0 7.26 0 11 0 C11 1.32 11 2.64 11 4 C15.95 4 20.9 4 26 4 C26 5.32 26 6.64 26 8 C17.42 8 8.84 8 0 8 C0 5.36 0 2.72 0 0 Z " fill="#E4D4CC" transform="translate(64,118)"/>
<path d="M0 0 C1.65 0 3.3 0 5 0 C5.33 2.64 5.66 5.28 6 8 C5.34 8 4.68 8 4 8 C4 9.32 4 10.64 4 12 C2.68 12 1.36 12 0 12 C0 13.32 0 14.64 0 16 C1.32 16 2.64 16 4 16 C4 18.31 4 20.62 4 23 C2.68 23 1.36 23 0 23 C0 24.32 0 25.64 0 27 C-0.99 27 -1.98 27 -3 27 C-3 20.73 -3 14.46 -3 8 C-2.01 8 -1.02 8 0 8 C0 5.36 0 2.72 0 0 Z " fill="#C57B55" transform="translate(124,34)"/>
<path d="M0 0 C2.64 0 5.28 0 8 0 C8 2.64 8 5.28 8 8 C9.32 8 10.64 8 12 8 C12 11.63 12 15.26 12 19 C10.68 19 9.36 19 8 19 C8 18.01 8 17.02 8 16 C6.68 16 5.36 16 4 16 C4 13.36 4 10.72 4 8 C2.68 8.33 1.36 8.66 0 9 C0 6.03 0 3.06 0 0 Z " fill="#FFCCB4" transform="translate(29,148)"/>
<path d="M0 0 C3.63 0 7.26 0 11 0 C11 1.32 11 2.64 11 4 C9.68 4 8.36 4 7 4 C7 7.96 7 11.92 7 16 C6.01 16 5.02 16 4 16 C4 16.99 4 17.98 4 19 C2.68 19 1.36 19 0 19 C0 12.73 0 6.46 0 0 Z " fill="#552419" transform="translate(98,76)"/>
<path d="M0 0 C1.32 0 2.64 0 4 0 C4 3.96 4 7.92 4 12 C5.32 12 6.64 12 8 12 C8 12.99 8 13.98 8 15 C6.68 15 5.36 15 4 15 C4 16.32 4 17.64 4 19 C2.68 19 1.36 19 0 19 C0 20.32 0 21.64 0 23 C-2.31 23 -4.62 23 -7 23 C-7 21.68 -7 20.36 -7 19 C-5.68 19 -4.36 19 -3 19 C-3 16.69 -3 14.38 -3 12 C-2.01 12 -1.02 12 0 12 C0 8.04 0 4.08 0 0 Z " fill="#D29184" transform="translate(105,80)"/>
<path d="M0 0 C6.27 0 12.54 0 19 0 C19 2.64 19 5.28 19 8 C14.05 8 9.1 8 4 8 C4 6.68 4 5.36 4 4 C2.68 4 1.36 4 0 4 C0 2.68 0 1.36 0 0 Z " fill="#FFF1C5" transform="translate(75,95)"/>
<path d="M0 0 C1.32 0 2.64 0 4 0 C4 3.63 4 7.26 4 11 C2.68 11 1.36 11 0 11 C0 13.64 0 16.28 0 19 C-2.64 19 -5.28 19 -8 19 C-8 16.36 -8 13.72 -8 11 C-6.68 11 -5.36 11 -4 11 C-4 8.69 -4 6.38 -4 4 C-2.68 4 -1.36 4 0 4 C0 2.68 0 1.36 0 0 Z " fill="#FEF5E8" transform="translate(79,50)"/>
<path d="M0 0 C3.96 0 7.92 0 12 0 C12 0.99 12 1.98 12 3 C15.63 3 19.26 3 23 3 C23 4.32 23 5.64 23 7 C19.37 7 15.74 7 12 7 C12 8.32 12 9.64 12 11 C10.68 11 9.36 11 8 11 C8 9.68 8 8.36 8 7 C6.68 7 5.36 7 4 7 C4 5.68 4 4.36 4 3 C2.68 3 1.36 3 0 3 C0 2.01 0 1.02 0 0 Z " fill="#987263" transform="translate(105,111)"/>
<path d="M0 0 C0.66 0.33 1.32 0.66 2 1 C2 2.98 2 4.96 2 7 C3.32 7.33 4.64 7.66 6 8 C6 8.99 6 9.98 6 11 C7.32 11.33 8.64 11.66 10 12 C10 12.99 10 13.98 10 15 C4.72 15 -0.56 15 -6 15 C-6 14.01 -6 13.02 -6 12 C-5.01 12 -4.02 12 -3 12 C-3 8.37 -3 4.74 -3 1 C-2.01 0.67 -1.02 0.34 0 0 Z " fill="#7B4335" transform="translate(146,163)"/>
<path d="M0 0 C1.32 0 2.64 0 4 0 C4 2.31 4 4.62 4 7 C5.32 7 6.64 7 8 7 C8 8.32 8 9.64 8 11 C8.99 11 9.98 11 11 11 C11 11.99 11 12.98 11 14 C8.69 14 6.38 14 4 14 C4 13.01 4 12.02 4 11 C2.68 11 1.36 11 0 11 C0 9.68 0 8.36 0 7 C-3.63 7 -7.26 7 -11 7 C-11 5.68 -11 4.36 -11 3 C-7.37 3 -3.74 3 0 3 C0 2.01 0 1.02 0 0 Z " fill="#895250" transform="translate(60,164)"/>
<path d="M0 0 C1.32 0 2.64 0 4 0 C4 1.32 4 2.64 4 4 C5.65 4 7.3 4 9 4 C9.33 5.32 9.66 6.64 10 8 C9.34 8 8.68 8 8 8 C8 11.63 8 15.26 8 19 C6.68 19 5.36 19 4 19 C4 17.68 4 16.36 4 15 C2.68 15 1.36 15 0 15 C0 10.05 0 5.1 0 0 Z " fill="#AD8B78" transform="translate(128,118)"/>
<path d="M0 0 C2.64 0 5.28 0 8 0 C8 3.63 8 7.26 8 11 C9.32 11 10.64 11 12 11 C12 13.64 12 16.28 12 19 C10.68 19 9.36 19 8 19 C8 17.68 8 16.36 8 15 C6.68 15 5.36 15 4 15 C4 12.69 4 10.38 4 8 C2.68 8 1.36 8 0 8 C0 5.36 0 2.72 0 0 Z " fill="#8D635D" transform="translate(109,137)"/>
<path d="M0 0 C1.32 0 2.64 0 4 0 C4 1.32 4 2.64 4 4 C6.31 4 8.62 4 11 4 C11 2.68 11 1.36 11 0 C12.32 0 13.64 0 15 0 C15 1.32 15 2.64 15 4 C16.32 4 17.64 4 19 4 C19 5.32 19 6.64 19 8 C11.41 8 3.82 8 -4 8 C-4 6.68 -4 5.36 -4 4 C-2.68 4 -1.36 4 0 4 C0 2.68 0 1.36 0 0 Z " fill="#3E272F" transform="translate(79,114)"/>
<path d="M0 0 C1.32 0 2.64 0 4 0 C4 1.32 4 2.64 4 4 C5.32 4 6.64 4 8 4 C8 6.31 8 8.62 8 11 C9.32 11 10.64 11 12 11 C12 12.32 12 13.64 12 15 C8.04 15 4.08 15 0 15 C0 10.05 0 5.1 0 0 Z " fill="#D7B698" transform="translate(71,156)"/>
<path d="M0 0 C3.63 0 7.26 0 11 0 C11 1.32 11 2.64 11 4 C8.69 4 6.38 4 4 4 C4 5.32 4 6.64 4 8 C-2.27 8 -8.54 8 -15 8 C-15 6.68 -15 5.36 -15 4 C-10.05 4 -5.1 4 0 4 C0 2.68 0 1.36 0 0 Z " fill="#8B5047" transform="translate(94,103)"/>
<path d="M0 0 C3.63 0 7.26 0 11 0 C11 1.32 11 2.64 11 4 C9.68 4 8.36 4 7 4 C7 10.27 7 16.54 7 23 C5.68 23 4.36 23 3 23 C3 16.73 3 10.46 3 4 C2.01 4 1.02 4 0 4 C0 2.68 0 1.36 0 0 Z " fill="#E69C6D" transform="translate(49,61)"/>
<path d="M0 0 C7.11111111 -0.35555556 7.11111111 -0.35555556 10.5 1 C12.9023404 4.20312054 12.25747761 7.07346641 12 11 C10.35 11 8.7 11 7 11 C7 8.69 7 6.38 7 4 C5.02 4 3.04 4 1 4 C1 6.31 1 8.62 1 11 C-0.9375 11.5625 -0.9375 11.5625 -3 12 C-4 11 -4 11 -4.09765625 8.93359375 C-4.08605469 8.10988281 -4.07445313 7.28617188 -4.0625 6.4375 C-4.05347656 5.61121094 -4.04445313 4.78492188 -4.03515625 3.93359375 C-4.02355469 3.29550781 -4.01195313 2.65742187 -4 2 C-2.68 2.33 -1.36 2.66 0 3 C0 2.01 0 1.02 0 0 Z " fill="#8B4025" transform="translate(33,54)"/>
<path d="M0 0 C0.99 0 1.98 0 3 0 C3 3.96 3 7.92 3 12 C4.32 12 5.64 12 7 12 C7 14.31 7 16.62 7 19 C8.32 19 9.64 19 11 19 C11 20.32 11 21.64 11 23 C8.36 23 5.72 23 3 23 C3 21.68 3 20.36 3 19 C2.01 19 1.02 19 0 19 C0 12.73 0 6.46 0 0 Z " fill="#CE9284" transform="translate(68,80)"/>
<path d="M0 0 C3.63 0 7.26 0 11 0 C11 0.99 11 1.98 11 3 C10.01 3 9.02 3 8 3 C8 4.32 8 5.64 8 7 C6.68 7 5.36 7 4 7 C4 8.32 4 9.64 4 11 C2.68 11 1.36 11 0 11 C0 9.68 0 8.36 0 7 C-2.64 7 -5.28 7 -8 7 C-8 5.68 -8 4.36 -8 3 C-5.36 3 -2.72 3 0 3 C0 2.01 0 1.02 0 0 Z " fill="#FCD9AF" transform="translate(60,54)"/>
<path d="M0 0 C0.99 0 1.98 0 3 0 C3 2.64 3 5.28 3 8 C4.32 8 5.64 8 7 8 C7 8.99 7 9.98 7 11 C5.68 11 4.36 11 3 11 C3 12.32 3 13.64 3 15 C2.01 15 1.02 15 0 15 C0 17.31 0 19.62 0 22 C-1.65 22 -3.3 22 -5 22 C-5 19.69 -5 17.38 -5 15 C-3.68 14.67 -2.36 14.34 -1 14 C-1.01160156 13.07316406 -1.02320313 12.14632812 -1.03515625 11.19140625 C-1.04417969 9.99386719 -1.05320312 8.79632813 -1.0625 7.5625 C-1.07410156 6.36753906 -1.08570313 5.17257813 -1.09765625 3.94140625 C-1 1 -1 1 0 0 Z " fill="#9C574F" transform="translate(30,156)"/>
<path d="M0 0 C1.32 0 2.64 0 4 0 C4 2.31 4 4.62 4 7 C2.68 7 1.36 7 0 7 C0 9.64 0 12.28 0 15 C1.32 15 2.64 15 4 15 C4 16.32 4 17.64 4 19 C1.69 19 -0.62 19 -3 19 C-3 16.36 -3 13.72 -3 11 C-4.32 11 -5.64 11 -7 11 C-7 9.68 -7 8.36 -7 7 C-5.68 7 -4.36 7 -3 7 C-3 5.68 -3 4.36 -3 3 C-2.01 3 -1.02 3 0 3 C0 2.01 0 1.02 0 0 Z " fill="#EAA070" transform="translate(71,54)"/>
<path d="M0 0 C1.32 0 2.64 0 4 0 C4 2.31 4 4.62 4 7 C5.32 7 6.64 7 8 7 C8 8.32 8 9.64 8 11 C8.99 11 9.98 11 11 11 C11 12.32 11 13.64 11 15 C8.69 15 6.38 15 4 15 C4 13.68 4 12.36 4 11 C1.36 11 -1.28 11 -4 11 C-4 9.68 -4 8.36 -4 7 C-2.68 7 -1.36 7 0 7 C0 4.69 0 2.38 0 0 Z " fill="#BC726A" transform="translate(41,130)"/>
<path d="M0 0 C0.33 0 0.66 0 1 0 C1 2.31 1 4.62 1 7 C-0.32 7.33 -1.64 7.66 -3 8 C-3 12.62 -3 17.24 -3 22 C-4.32 22.33 -5.64 22.66 -7 23 C-8 22 -8 22 -8.09765625 18.62109375 C-8.09098369 17.22652923 -8.07902532 15.83198257 -8.0625 14.4375 C-8.05798828 13.72658203 -8.05347656 13.01566406 -8.04882812 12.28320312 C-8.03700864 10.52209987 -8.01907263 8.76103964 -8 7 C-6.68 7 -5.36 7 -4 7 C-4 5.68 -4 4.36 -4 3 C-2.68 3 -1.36 3 0 3 C0 2.01 0 1.02 0 0 Z " fill="#CE865D" transform="translate(132,58)"/>
<path d="M0 0 C1.65 0.33 3.3 0.66 5 1 C5 3.64 5 6.28 5 9 C2.36 9 -0.28 9 -3 9 C-3 10.32 -3 11.64 -3 13 C-4.32 13 -5.64 13 -7 13 C-7 14.32 -7 15.64 -7 17 C-8.32 17 -9.64 17 -11 17 C-11 15.35 -11 13.7 -11 12 C-10.01 12 -9.02 12 -8 12 C-8 10.68 -8 9.36 -8 8 C-6.68 8 -5.36 8 -4 8 C-4 6.68 -4 5.36 -4 4 C-2.68 4 -1.36 4 0 4 C0 2.68 0 1.36 0 0 Z " fill="#D18D61" transform="translate(59,18)"/>
<path d="M0 0 C0.33 0 0.66 0 1 0 C1 4.29 1 8.58 1 13 C-0.32 13 -1.64 13 -3 13 C-3 15.64 -3 18.28 -3 21 C-4.32 21 -5.64 21 -7 21 C-7 21.99 -7 22.98 -7 24 C-8.32 24 -9.64 24 -11 24 C-10.67 22.68 -10.34 21.36 -10 20 C-9.34 20 -8.68 20 -8 20 C-8 17.69 -8 15.38 -8 13 C-6.68 12.67 -5.36 12.34 -4 12 C-4 10.02 -4 8.04 -4 6 C-2.68 5.67 -1.36 5.34 0 5 C0 3.35 0 1.7 0 0 Z " fill="#81514D" transform="translate(40,124)"/>
<path d="M0 0 C2.64 0 5.28 0 8 0 C8 7.26 8 14.52 8 22 C6.68 22 5.36 22 4 22 C4 15.73 4 9.46 4 3 C2.68 3 1.36 3 0 3 C0 2.01 0 1.02 0 0 Z " fill="#CF855C" transform="translate(71,16)"/>
<path d="M0 0 C1.32 0 2.64 0 4 0 C4 2.64 4 5.28 4 8 C5.32 8 6.64 8 8 8 C8 10.64 8 13.28 8 16 C5.36 16 2.72 16 0 16 C0 10.72 0 5.44 0 0 Z " fill="#D4B396" transform="translate(52,114)"/>
<path d="M0 0 C0.99 0 1.98 0 3 0 C3 3.96 3 7.92 3 12 C2.01 12 1.02 12 0 12 C0 14.31 0 16.62 0 19 C-1.32 19 -2.64 19 -4 19 C-4 14.05 -4 9.1 -4 4 C-2.68 4 -1.36 4 0 4 C0 2.68 0 1.36 0 0 Z " fill="#CC835A" transform="translate(102,19)"/>
<path d="M0 0 C3.63 0 7.26 0 11 0 C11 1.32 11 2.64 11 4 C9.68 4 8.36 4 7 4 C7 4.99 7 5.98 7 7 C4.69 7 2.38 7 0 7 C0 8.32 0 9.64 0 11 C-1.32 11 -2.64 11 -4 11 C-4 8.69 -4 6.38 -4 4 C-2.68 4 -1.36 4 0 4 C0 2.68 0 1.36 0 0 Z " fill="#E2CAA6" transform="translate(98,107)"/>
<path d="M0 0 C1.32 0 2.64 0 4 0 C4 2.64 4 5.28 4 8 C5.32 8 6.64 8 8 8 C8 9.32 8 10.64 8 12 C5.36 12 2.72 12 0 12 C0 10.68 0 9.36 0 8 C-2.31 8 -4.62 8 -7 8 C-7 6.68 -7 5.36 -7 4 C-4.69 4 -2.38 4 0 4 C0 2.68 0 1.36 0 0 Z " fill="#904B47" transform="translate(52,148)"/>
<path d="M0 0 C1.32 0 2.64 0 4 0 C4 7.59 4 15.18 4 23 C2.68 23 1.36 23 0 23 C0 15.41 0 7.82 0 0 Z " fill="#EAA070" transform="translate(56,65)"/>
<path d="M0 0 C1.32 0 2.64 0 4 0 C4 7.59 4 15.18 4 23 C2.68 23 1.36 23 0 23 C0 15.41 0 7.82 0 0 Z " fill="#CB8274" transform="translate(79,69)"/>
<path d="M0 0 C0 0.99 0 1.98 0 3 C0.99 3.33 1.98 3.66 3 4 C0.36 4 -2.28 4 -5 4 C-5 5.32 -5 6.64 -5 8 C-7.64 8 -10.28 8 -13 8 C-13 5.36 -13 2.72 -13 0 C-11.20909747 -0.19466332 -9.41723495 -0.38051213 -7.625 -0.5625 C-6.12839844 -0.71912109 -6.12839844 -0.71912109 -4.6015625 -0.87890625 C-2 -1 -2 -1 0 0 Z " fill="#8F5E50" transform="translate(118,99)"/>
<path d="M0 0 C0.99 0.33 1.98 0.66 3 1 C3 2.98 3 4.96 3 7 C3.99 7.33 4.98 7.66 6 8 C6.6875 10.0625 6.6875 10.0625 7 12 C6.34 12 5.68 12 5 12 C5 13.32 5 14.64 5 16 C4.01 16 3.02 16 2 16 C2 14.68 2 13.36 2 12 C0.68 12 -0.64 12 -2 12 C-2 8.37 -2 4.74 -2 1 C-1.34 0.67 -0.68 0.34 0 0 Z " fill="#956E64" transform="translate(138,125)"/>
<path d="M0 0 C2.31 0 4.62 0 7 0 C7 1.32 7 2.64 7 4 C5.68 4 4.36 4 3 4 C3 9.94 3 15.88 3 22 C2.01 22 1.02 22 0 22 C0 14.74 0 7.48 0 0 Z " fill="#BD736B" transform="translate(121,156)"/>
<path d="M0 0 C2.64 0 5.28 0 8 0 C8 2.31 8 4.62 8 7 C2.72 7 -2.56 7 -8 7 C-8 6.01 -8 5.02 -8 4 C-5.36 4 -2.72 4 0 4 C0 2.68 0 1.36 0 0 Z " fill="#B8A39B" transform="translate(113,171)"/>
<path d="M0 0 C1.32 0 2.64 0 4 0 C4 2.64 4 5.28 4 8 C5.32 8 6.64 8 8 8 C8 9.32 8 10.64 8 12 C4.04 12 0.08 12 -4 12 C-4 10.68 -4 9.36 -4 8 C-2.68 8 -1.36 8 0 8 C0 5.36 0 2.72 0 0 Z " fill="#925D55" transform="translate(60,152)"/>
<path d="M0 0 C2.31 0 4.62 0 7 0 C7 1.32 7 2.64 7 4 C8.32 4 9.64 4 11 4 C11 6.31 11 8.62 11 11 C8.69 11 6.38 11 4 11 C4 8.69 4 6.38 4 4 C2.68 4 1.36 4 0 4 C0 2.68 0 1.36 0 0 Z " fill="#DC9084" transform="translate(98,65)"/>
<path d="M0 0 C6.27 0 12.54 0 19 0 C19 1.32 19 2.64 19 4 C12.73 4 6.46 4 0 4 C0 2.68 0 1.36 0 0 Z " fill="#000000" transform="translate(75,152)"/>
<path d="M0 0 C2.64 0 5.28 0 8 0 C8 1.32 8 2.64 8 4 C6.68 4 5.36 4 4 4 C4 7.63 4 11.26 4 15 C2.68 15 1.36 15 0 15 C0 10.05 0 5.1 0 0 Z " fill="#EDC299" transform="translate(109,122)"/>
<path d="M0 0 C6.27 0 12.54 0 19 0 C19 2.31 19 4.62 19 7 C17.68 7 16.36 7 15 7 C15 5.68 15 4.36 15 3 C10.05 3 5.1 3 0 3 C0 2.01 0 1.02 0 0 Z " fill="#A76142" transform="translate(83,16)"/>
<path d="M0 0 C1.32 0 2.64 0 4 0 C4 2.64 4 5.28 4 8 C2.68 8 1.36 8 0 8 C0 9.32 0 10.64 0 12 C-2.31 12 -4.62 12 -7 12 C-7 10.68 -7 9.36 -7 8 C-5.68 8 -4.36 8 -3 8 C-3 6.68 -3 5.36 -3 4 C-2.01 4 -1.02 4 0 4 C0 2.68 0 1.36 0 0 Z " fill="#FECDA5" transform="translate(124,57)"/>
<path d="M0 0 C2.64 0 5.28 0 8 0 C8 1.32 8 2.64 8 4 C6.68 4 5.36 4 4 4 C4 6.31 4 8.62 4 11 C3.4225 10.690625 2.845 10.38125 2.25 10.0625 C0.15705816 9.07416636 -1.74535275 8.4831387 -4 8 C-4 6.68 -4 5.36 -4 4 C-2.68 4 -1.36 4 0 4 C0 2.68 0 1.36 0 0 Z " fill="#F1BB8B" transform="translate(41,46)"/>
<path d="M0 0 C3.96 0 7.92 0 12 0 C12 0.33 12 0.66 12 1 C9.36 1 6.72 1 4 1 C4 4.63 4 8.26 4 12 C3.01 12 2.02 12 1 12 C1 10.68 1 9.36 1 8 C-0.32 8 -1.64 8 -3 8 C-3 6.68 -3 5.36 -3 4 C-4.32 3.67 -5.64 3.34 -7 3 C-4.69 3 -2.38 3 0 3 C0 2.01 0 1.02 0 0 Z " fill="#D39067" transform="translate(67,15)"/>
<path d="M0 0 C0.99 0 1.98 0 3 0 C3 2.31 3 4.62 3 7 C2.01 7 1.02 7 0 7 C0 8.32 0 9.64 0 11 C-2.64 11 -5.28 11 -8 11 C-8 9.68 -8 8.36 -8 7 C-6.68 7 -5.36 7 -4 7 C-4 5.68 -4 4.36 -4 3 C-2.68 3 -1.36 3 0 3 C0 2.01 0 1.02 0 0 Z " fill="#543640" transform="translate(102,145)"/>
<path d="M0 0 C2.64 0 5.28 0 8 0 C8 1.32 8 2.64 8 4 C9.32 4 10.64 4 12 4 C12 4.99 12 5.98 12 7 C8.04 7 4.08 7 0 7 C0 4.69 0 2.38 0 0 Z " fill="#855756" transform="translate(124,141)"/>
<path d="M0 0 C3.63 0 7.26 0 11 0 C11 1.32 11 2.64 11 4 C10.01 4 9.02 4 8 4 C8 4.99 8 5.98 8 7 C5.36 7 2.72 7 0 7 C0 4.69 0 2.38 0 0 Z " fill="#EAA373" transform="translate(113,69)"/>
<path d="M0 0 C2.97 0 5.94 0 9 0 C8.67 1.32 8.34 2.64 8 4 C6.68 4 5.36 4 4 4 C4 5.32 4 6.64 4 8 C1.36 8 -1.28 8 -4 8 C-4 6.68 -4 5.36 -4 4 C-2.68 4 -1.36 4 0 4 C0 2.68 0 1.36 0 0 Z " fill="#3B1F17" transform="translate(113,103)"/>
<path d="M0 0 C1.32 0 2.64 0 4 0 C4 1.32 4 2.64 4 4 C5.32 4 6.64 4 8 4 C8 5.32 8 6.64 8 8 C4.04 8 0.08 8 -4 8 C-4 6.68 -4 5.36 -4 4 C-2.68 4 -1.36 4 0 4 C0 2.68 0 1.36 0 0 Z " fill="#643124" transform="translate(113,152)"/>
<path d="M0 0 C1.32 0 2.64 0 4 0 C4 2.64 4 5.28 4 8 C0.04 8 -3.92 8 -8 8 C-8 6.68 -8 5.36 -8 4 C-5.36 4 -2.72 4 0 4 C0 2.68 0 1.36 0 0 Z " fill="#A97168" transform="translate(136,148)"/>
<path d="M0 0 C1.32 0 2.64 0 4 0 C4 0.99 4 1.98 4 3 C5.32 3 6.64 3 8 3 C8 4.32 8 5.64 8 7 C4.37 7 0.74 7 -3 7 C-3.33 5.35 -3.66 3.7 -4 2 C-2.68 2 -1.36 2 0 2 C0 1.34 0 0.68 0 0 Z " fill="#B46948" transform="translate(48,35)"/>
<path d="M0 0 C2.31 0 4.62 0 7 0 C7 3.63 7 7.26 7 11 C6.01 11 5.02 11 4 11 C4 9.68 4 8.36 4 7 C2.68 7 1.36 7 0 7 C0 4.69 0 2.38 0 0 Z " fill="#FFFFCB" transform="translate(98,130)"/>
<path d="M0 0 C4.95 0 9.9 0 15 0 C15 1.32 15 2.64 15 4 C10.05 4 5.1 4 0 4 C0 2.68 0 1.36 0 0 Z " fill="#DC9084" transform="translate(79,103)"/>
<path d="M0 0 C1.32 0 2.64 0 4 0 C4 4.95 4 9.9 4 15 C2.68 15 1.36 15 0 15 C0 10.05 0 5.1 0 0 Z " fill="#110705" transform="translate(98,80)"/>
<path d="M0 0 C4.95 0 9.9 0 15 0 C15 1.32 15 2.64 15 4 C10.05 4 5.1 4 0 4 C0 2.68 0 1.36 0 0 Z " fill="#FEFEFE" transform="translate(49,42)"/>
<path d="M0 0 C1.32 0 2.64 0 4 0 C4 4.95 4 9.9 4 15 C2.68 15 1.36 15 0 15 C0 10.05 0 5.1 0 0 Z " fill="#FEF5E8" transform="translate(90,23)"/>
<path d="M0 0 C0.99 0 1.98 0 3 0 C3 6.27 3 12.54 3 19 C2.01 19 1.02 19 0 19 C0 12.73 0 6.46 0 0 Z " fill="#783F2D" transform="translate(49,65)"/>
<path d="M0 0 C1.65 0 3.3 0 5 0 C5.33 2.64 5.66 5.28 6 8 C5.34 8 4.68 8 4 8 C4 9.32 4 10.64 4 12 C2.68 12 1.36 12 0 12 C0 8.04 0 4.08 0 0 Z " fill="#D89164" transform="translate(124,34)"/>
<path d="M0 0 C2.64 0 5.28 0 8 0 C8 1.32 8 2.64 8 4 C9.32 4 10.64 4 12 4 C12 4.99 12 5.98 12 7 C9.36 7 6.72 7 4 7 C4 6.01 4 5.02 4 4 C2.68 4 1.36 4 0 4 C0 2.68 0 1.36 0 0 Z " fill="#E8C8A5" transform="translate(71,107)"/>
<path d="M0 0 C7.11111111 -0.35555556 7.11111111 -0.35555556 10.5 1 C12.9023404 4.20312054 12.25747761 7.07346641 12 11 C10.35 11 8.7 11 7 11 C6.95758277 8.66705225 6.95907063 6.33297433 7 4 C7.33 3.67 7.66 3.34 8 3 C5.36 2.67 2.72 2.34 0 2 C0 1.34 0 0.68 0 0 Z " fill="#8D4F3A" transform="translate(33,54)"/>
<path d="M0 0 C3.63 0 7.26 0 11 0 C11 1.32 11 2.64 11 4 C8.69 4 6.38 4 4 4 C4 4.99 4 5.98 4 7 C2.68 7 1.36 7 0 7 C0 4.69 0 2.38 0 0 Z " fill="#9F5B3F" transform="translate(45,50)"/>
<path d="M0 0 C3.96 0 7.92 0 12 0 C12 0.99 12 1.98 12 3 C10.68 3 9.36 3 8 3 C8 4.32 8 5.64 8 7 C6.68 7 5.36 7 4 7 C4 5.68 4 4.36 4 3 C2.68 3 1.36 3 0 3 C0 2.01 0 1.02 0 0 Z " fill="#C28572" transform="translate(105,111)"/>
<path d="M0 0 C0.99 0 1.98 0 3 0 C4.17571451 3.67410785 4.07366746 7.16929183 4 11 C2.0625 11.5625 2.0625 11.5625 0 12 C-1 11 -1 11 -1.125 7.6875 C-1.02893262 4.85351237 -0.85249568 2.66404901 0 0 Z " fill="#BD754D" transform="translate(49,84)"/>
<path d="M0 0 C3.96 0 7.92 0 12 0 C12 1.32 12 2.64 12 4 C8.04 4 4.08 4 0 4 C0 2.68 0 1.36 0 0 Z " fill="#D1B094" transform="translate(90,171)"/>
<path d="M0 0 C0.99 0 1.98 0 3 0 C3 5.28 3 10.56 3 16 C2.01 16 1.02 16 0 16 C0 10.72 0 5.44 0 0 Z " fill="#723B2D" transform="translate(140,148)"/>
<path d="M0 0 C1.32 0.33 2.64 0.66 4 1 C3.67 2.32 3.34 3.64 3 5 C2.34 5 1.68 5 1 5 C1 6.98 1 8.96 1 11 C-0.65 10.67 -2.3 10.34 -4 10 C-4 8.02 -4 6.04 -4 4 C-2.68 4 -1.36 4 0 4 C0 2.68 0 1.36 0 0 Z " fill="#92533E" transform="translate(121,84)"/>
<path d="M0 0 C1.32 0 2.64 0 4 0 C4 3.96 4 7.92 4 12 C2.68 12 1.36 12 0 12 C0 8.04 0 4.08 0 0 Z " fill="#BD7568" transform="translate(94,80)"/>
<path d="M0 0 C1.32 0 2.64 0 4 0 C4 3.96 4 7.92 4 12 C2.68 12 1.36 12 0 12 C0 8.04 0 4.08 0 0 Z " fill="#552419" transform="translate(109,80)"/>
<path d="M0 0 C1.32 0 2.64 0 4 0 C4 3.96 4 7.92 4 12 C2.68 12 1.36 12 0 12 C0 8.04 0 4.08 0 0 Z " fill="#F9B6A5" transform="translate(105,80)"/>
<path d="M0 0 C1.32 0 2.64 0 4 0 C4 3.96 4 7.92 4 12 C2.68 12 1.36 12 0 12 C0 8.04 0 4.08 0 0 Z " fill="#552519" transform="translate(64,80)"/>
<path d="M0 0 C3.96 0 7.92 0 12 0 C12 1.32 12 2.64 12 4 C8.04 4 4.08 4 0 4 C0 2.68 0 1.36 0 0 Z " fill="#AF6949" transform="translate(105,65)"/>
<path d="M0 0 C3.96 0 7.92 0 12 0 C12 1.32 12 2.64 12 4 C8.04 4 4.08 4 0 4 C0 2.68 0 1.36 0 0 Z " fill="#EBA171" transform="translate(90,57)"/>
<path d="M0 0 C1.32 0 2.64 0 4 0 C4 2.64 4 5.28 4 8 C1.36 8 -1.28 8 -4 8 C-4 6.68 -4 5.36 -4 4 C-2.68 4 -1.36 4 0 4 C0 2.68 0 1.36 0 0 Z " fill="#FEF2E0" transform="translate(56,27)"/>
<path d="M0 0 C1.32 0 2.64 0 4 0 C4 3.96 4 7.92 4 12 C2.68 12 1.36 12 0 12 C0 8.04 0 4.08 0 0 Z " fill="#FEF3E3" transform="translate(64,23)"/>
<path d="M0 0 C2.64 0 5.28 0 8 0 C8 2.64 8 5.28 8 8 C6.68 8 5.36 8 4 8 C4 6.68 4 5.36 4 4 C2.68 4 1.36 4 0 4 C0 2.68 0 1.36 0 0 Z " fill="#EBA171" transform="translate(90,19)"/>
<path d="M0 0 C2.475 0.495 2.475 0.495 5 1 C5 1.99 5 2.98 5 4 C6.32 4.33 7.64 4.66 9 5 C9 6.32 9 7.64 9 9 C7.35 9 5.7 9 4 9 C4 7.68 4 6.36 4 5 C2.68 5 1.36 5 0 5 C0 3.35 0 1.7 0 0 Z " fill="#733E2F" transform="translate(128,113)"/>
<path d="M0 0 C3.63 0 7.26 0 11 0 C11 1.32 11 2.64 11 4 C7.37 4 3.74 4 0 4 C0 2.68 0 1.36 0 0 Z " fill="#91514E" transform="translate(49,167)"/>
<path d="M0 0 C2.64 0 5.28 0 8 0 C8 1.32 8 2.64 8 4 C6.68 4 5.36 4 4 4 C4 4.99 4 5.98 4 7 C2.68 7 1.36 7 0 7 C0 4.69 0 2.38 0 0 Z " fill="#955F61" transform="translate(109,160)"/>
<path d="M0 0 C2.64 0 5.28 0 8 0 C8 1.32 8 2.64 8 4 C6.68 4 5.36 4 4 4 C4 4.99 4 5.98 4 7 C2.68 7 1.36 7 0 7 C0 4.69 0 2.38 0 0 Z " fill="#A38171" transform="translate(79,160)"/>
<path d="M0 0 C1.32 0 2.64 0 4 0 C4 1.32 4 2.64 4 4 C4.99 4 5.98 4 7 4 C7 5.32 7 6.64 7 8 C4.69 8 2.38 8 0 8 C0 5.36 0 2.72 0 0 Z " fill="#DAAB91" transform="translate(45,137)"/>
<path d="M0 0 C1.32 0 2.64 0 4 0 C4 3.63 4 7.26 4 11 C2.68 11 1.36 11 0 11 C0 7.37 0 3.74 0 0 Z " fill="#967B7B" transform="translate(60,126)"/>
<path d="M0 0 C3.63 0 7.26 0 11 0 C11 1.32 11 2.64 11 4 C7.37 4 3.74 4 0 4 C0 2.68 0 1.36 0 0 Z " fill="#967B7B" transform="translate(79,122)"/>
<path d="M0 0 C3.63 0 7.26 0 11 0 C11 1.32 11 2.64 11 4 C7.37 4 3.74 4 0 4 C0 2.68 0 1.36 0 0 Z " fill="#B7A19C" transform="translate(64,118)"/>
<path d="M0 0 C3.63 0 7.26 0 11 0 C11 1.32 11 2.64 11 4 C7.37 4 3.74 4 0 4 C0 2.68 0 1.36 0 0 Z " fill="#895C52" transform="translate(98,114)"/>
<path d="M0 0 C3.63 0 7.26 0 11 0 C11 1.32 11 2.64 11 4 C7.37 4 3.74 4 0 4 C0 2.68 0 1.36 0 0 Z " fill="#823F3B" transform="translate(79,107)"/>
<path d="M0 0 C1.32 0 2.64 0 4 0 C4 1.32 4 2.64 4 4 C5.32 4 6.64 4 8 4 C8 6.31 8 8.62 8 11 C7.67 10.34 7.34 9.68 7 9 C4.97536745 8.34786708 4.97536745 8.34786708 3 8 C3 7.01 3 6.02 3 5 C2.01 4.67 1.02 4.34 0 4 C0 2.68 0 1.36 0 0 Z " fill="#AD6444" transform="translate(52,84)"/>
<path d="M0 0 C1.32 0 2.64 0 4 0 C4 3.63 4 7.26 4 11 C2.68 11 1.36 11 0 11 C0 7.37 0 3.74 0 0 Z " fill="#170A07" transform="translate(75,84)"/>
<path d="M0 0 C1.32 0 2.64 0 4 0 C4 3.63 4 7.26 4 11 C2.68 11 1.36 11 0 11 C0 7.37 0 3.74 0 0 Z " fill="#CF855C" transform="translate(52,73)"/>
<path d="M0 0 C1.32 0 2.64 0 4 0 C4 3.63 4 7.26 4 11 C2.68 11 1.36 11 0 11 C0 7.37 0 3.74 0 0 Z " fill="#FEE9C9" transform="translate(56,65)"/>
<path d="M0 0 C3.63 0 7.26 0 11 0 C11 1.32 11 2.64 11 4 C7.37 4 3.74 4 0 4 C0 2.68 0 1.36 0 0 Z " fill="#D68C61" transform="translate(49,46)"/>
<path d="M0 0 C1.32 0 2.64 0 4 0 C4 0.99 4 1.98 4 3 C5.32 3 6.64 3 8 3 C8 4.32 8 5.64 8 7 C5.36 7 2.72 7 0 7 C0 4.69 0 2.38 0 0 Z " fill="#FFCA97" transform="translate(109,35)"/>
<path d="M0 0 C2.97 0.33 5.94 0.66 9 1 C9 2.32 9 3.64 9 5 C5.37 5 1.74 5 -2 5 C-1.34 4.67 -0.68 4.34 0 4 C0 2.68 0 1.36 0 0 Z " fill="#CB7F5A" transform="translate(40,41)"/>
<path d="M0 0 C1.32 0 2.64 0 4 0 C4 1.32 4 2.64 4 4 C5.32 4 6.64 4 8 4 C8 4.99 8 5.98 8 7 C5.36 7 2.72 7 0 7 C0 4.69 0 2.38 0 0 Z " fill="#D89575" transform="translate(56,171)"/>
<path d="M0 0 C0.99 0 1.98 0 3 0 C3 1.32 3 2.64 3 4 C4.32 4 5.64 4 7 4 C7 5.32 7 6.64 7 8 C4.69 8 2.38 8 0 8 C0 5.36 0 2.72 0 0 Z " fill="#755357" transform="translate(68,148)"/>
<path d="M0 0 C2.31 0 4.62 0 7 0 C7 1.32 7 2.64 7 4 C6.01 4 5.02 4 4 4 C4 4.99 4 5.98 4 7 C2.68 7 1.36 7 0 7 C0 4.69 0 2.38 0 0 Z " fill="#B99681" transform="translate(136,141)"/>
<path d="M0 0 C2.31 0 4.62 0 7 0 C7 2.64 7 5.28 7 8 C6.01 8 5.02 8 4 8 C4 6.68 4 5.36 4 4 C2.68 4 1.36 4 0 4 C0 2.68 0 1.36 0 0 Z " fill="#B19B95" transform="translate(98,118)"/>
<path d="M0 0 C1.32 0 2.64 0 4 0 C4 0.99 4 1.98 4 3 C4.99 3 5.98 3 7 3 C7 4.32 7 5.64 7 7 C4.69 7 2.38 7 0 7 C0 4.69 0 2.38 0 0 Z " fill="#5D383A" transform="translate(64,111)"/>
<path d="M0 0 C0.99 0 1.98 0 3 0 C3 2.64 3 5.28 3 8 C0.69 8 -1.62 8 -4 8 C-4 6.68 -4 5.36 -4 4 C-2.68 4 -1.36 4 0 4 C0 2.68 0 1.36 0 0 Z " fill="#945640" transform="translate(102,57)"/>
<path d="M0 0 C2.0625 0.4375 2.0625 0.4375 4 1 C4 3.31 4 5.62 4 8 C2.35 8 0.7 8 -1 8 C-1.04241723 5.66705225 -1.04092937 3.33297433 -1 1 C-0.67 0.67 -0.34 0.34 0 0 Z " fill="#733C2D" transform="translate(26,170)"/>
<path d="M0 0 C0.99 0 1.98 0 3 0 C3 2.31 3 4.62 3 7 C0.69 7 -1.62 7 -4 7 C-4 5.68 -4 4.36 -4 3 C-2.68 3 -1.36 3 0 3 C0 2.01 0 1.02 0 0 Z " fill="#BD736B" transform="translate(49,145)"/>
<path d="M0 0 C2.0625 0.4375 2.0625 0.4375 4 1 C4 3.64 4 6.28 4 9 C2.68 9 1.36 9 0 9 C-0.87890625 2.84765625 -0.87890625 2.84765625 -1 1 C-0.67 0.67 -0.34 0.34 0 0 Z " fill="#70392B" transform="translate(41,121)"/>
<path d="M0 0 C2.475 0.495 2.475 0.495 5 1 C5 2.98 5 4.96 5 7 C3.0625 7.5625 3.0625 7.5625 1 8 C0 7 0 7 -0.0625 3.4375 C-0.041875 2.303125 -0.02125 1.16875 0 0 Z " fill="#8E4C39" transform="translate(124,73)"/>
<path d="M0 0 C1.32 0 2.64 0 4 0 C4 1.32 4 2.64 4 4 C4.99 4 5.98 4 7 4 C7 4.99 7 5.98 7 7 C4.69 7 2.38 7 0 7 C0 4.69 0 2.38 0 0 Z " fill="#EBA171" transform="translate(83,50)"/>
<path d="M0 0 C0.33 0.99 0.66 1.98 1 3 C3.64 3 6.28 3 9 3 C9 3.33 9 3.66 9 4 C7.35 4 5.7 4 4 4 C4 5.32 4 6.64 4 8 C2.68 8 1.36 8 0 8 C0 6.68 0 5.36 0 4 C-0.99 4 -1.98 4 -3 4 C-3 3.01 -3 2.02 -3 1 C-2.01 0.67 -1.02 0.34 0 0 Z " fill="#B46D50" transform="translate(105,15)"/>
<path d="M0 0 C0.33 0.66 0.66 1.32 1 2 C2.32 2 3.64 2 5 2 C5 3.32 5 4.64 5 6 C3.68 6 2.36 6 1 6 C1 6.99 1 7.98 1 9 C-0.32 9 -1.64 9 -3 9 C-2.67 7.68 -2.34 6.36 -2 5 C-1.34 5 -0.68 5 0 5 C0 3.35 0 1.7 0 0 Z " fill="#934F4A" transform="translate(32,139)"/>
<path d="M0 0 C0.99 0 1.98 0 3 0 C3 3.96 3 7.92 3 12 C2.01 12 1.02 12 0 12 C0 8.04 0 4.08 0 0 Z " fill="#F9B6A5" transform="translate(68,80)"/>
<path d="M0 0 C0.99 0 1.98 0 3 0 C3 3.96 3 7.92 3 12 C2.01 12 1.02 12 0 12 C0 8.04 0 4.08 0 0 Z " fill="#EBA171" transform="translate(87,23)"/>
<path d="M0 0 C0.99 0 1.98 0 3 0 C3 3.96 3 7.92 3 12 C2.01 12 1.02 12 0 12 C0 8.04 0 4.08 0 0 Z " fill="#D88E63" transform="translate(102,19)"/>
<path d="M0 0 C2.475 0.495 2.475 0.495 5 1 C5 3.64 5 6.28 5 9 C3.68 9 2.36 9 1 9 C0.67 6.03 0.34 3.06 0 0 Z " fill="#B26B48" transform="translate(59,18)"/>
<path d="M0 0 C0.99 0 1.98 0 3 0 C3 3.63 3 7.26 3 11 C2.01 11 1.02 11 0 11 C0 7.37 0 3.74 0 0 Z " fill="#DB8F83" transform="translate(140,164)"/>
<path d="M0 0 C1.32 0 2.64 0 4 0 C4 2.64 4 5.28 4 8 C2.68 8.33 1.36 8.66 0 9 C0 6.03 0 3.06 0 0 Z " fill="#D98E82" transform="translate(29,148)"/>
<path d="M0 0 C1.32 0 2.64 0 4 0 C4 2.31 4 4.62 4 7 C2.35 7.33 0.7 7.66 -1 8 C-0.67 5.36 -0.34 2.72 0 0 Z " fill="#A96447" transform="translate(64,92)"/>
<path d="M0 0 C0.99 0 1.98 0 3 0 C3 1.32 3 2.64 3 4 C4.32 4 5.64 4 7 4 C7 4.99 7 5.98 7 7 C4.69 7 2.38 7 0 7 C0 4.69 0 2.38 0 0 Z " fill="#FFFFCB" transform="translate(87,69)"/>
<path d="M0 0 C2.64 0 5.28 0 8 0 C8 1.32 8 2.64 8 4 C5.36 4 2.72 4 0 4 C0 2.68 0 1.36 0 0 Z " fill="#733C2E" transform="translate(71,171)"/>
<path d="M0 0 C2.64 0 5.28 0 8 0 C8 1.32 8 2.64 8 4 C5.36 4 2.72 4 0 4 C0 2.68 0 1.36 0 0 Z " fill="#825353" transform="translate(128,152)"/>
<path d="M0 0 C1.32 0 2.64 0 4 0 C4 2.64 4 5.28 4 8 C2.68 8 1.36 8 0 8 C0 5.36 0 2.72 0 0 Z " fill="#552519" transform="translate(64,152)"/>
<path d="M0 0 C1.32 0 2.64 0 4 0 C4 2.64 4 5.28 4 8 C2.68 8 1.36 8 0 8 C0 5.36 0 2.72 0 0 Z " fill="#B8747C" transform="translate(60,152)"/>
<path d="M0 0 C2.64 0 5.28 0 8 0 C8 1.32 8 2.64 8 4 C5.36 4 2.72 4 0 4 C0 2.68 0 1.36 0 0 Z " fill="#E8C8A5" transform="translate(128,148)"/>
<path d="M0 0 C2.64 0 5.28 0 8 0 C8 1.32 8 2.64 8 4 C5.36 4 2.72 4 0 4 C0 2.68 0 1.36 0 0 Z " fill="#A38171" transform="translate(52,141)"/>
<path d="M0 0 C1.32 0 2.64 0 4 0 C4 2.64 4 5.28 4 8 C2.68 8 1.36 8 0 8 C0 5.36 0 2.72 0 0 Z " fill="#B26947" transform="translate(109,137)"/>
<path d="M0 0 C1.32 0 2.64 0 4 0 C4 2.64 4 5.28 4 8 C2.68 8 1.36 8 0 8 C0 5.36 0 2.72 0 0 Z " fill="#733D2F" transform="translate(60,137)"/>
<path d="M0 0 C1.32 0 2.64 0 4 0 C4 2.64 4 5.28 4 8 C2.68 8 1.36 8 0 8 C0 5.36 0 2.72 0 0 Z " fill="#AB6957" transform="translate(56,133)"/>
<path d="M0 0 C1.32 0 2.64 0 4 0 C4 2.64 4 5.28 4 8 C2.68 8 1.36 8 0 8 C0 5.36 0 2.72 0 0 Z " fill="#B99882" transform="translate(128,118)"/>
<path d="M0 0 C2.64 0 5.28 0 8 0 C8 1.32 8 2.64 8 4 C5.36 4 2.72 4 0 4 C0 2.68 0 1.36 0 0 Z " fill="#CAB7AF" transform="translate(90,122)"/>
<path d="M0 0 C1.32 0 2.64 0 4 0 C4 2.64 4 5.28 4 8 C2.68 8 1.36 8 0 8 C0 5.36 0 2.72 0 0 Z " fill="#543640" transform="translate(60,118)"/>
<path d="M0 0 C2.64 0 5.28 0 8 0 C8 1.32 8 2.64 8 4 C5.36 4 2.72 4 0 4 C0 2.68 0 1.36 0 0 Z " fill="#794944" transform="translate(71,103)"/>
<path d="M0 0 C1.32 0 2.64 0 4 0 C4 2.64 4 5.28 4 8 C2.68 8 1.36 8 0 8 C0 5.36 0 2.72 0 0 Z " fill="#DC9084" transform="translate(79,84)"/>
<path d="M0 0 C1.32 0 2.64 0 4 0 C4 2.64 4 5.28 4 8 C2.68 8 1.36 8 0 8 C0 5.36 0 2.72 0 0 Z " fill="#FFC6B2" transform="translate(113,80)"/>
<path d="M0 0 C1.32 0 2.64 0 4 0 C4 2.64 4 5.28 4 8 C2.68 8 1.36 8 0 8 C0 5.36 0 2.72 0 0 Z " fill="#EAA070" transform="translate(45,76)"/>
<path d="M0 0 C2.64 0 5.28 0 8 0 C8 1.32 8 2.64 8 4 C5.36 4 2.72 4 0 4 C0 2.68 0 1.36 0 0 Z " fill="#FFDEAC" transform="translate(71,65)"/>
<path d="M0 0 C1.32 0 2.64 0 4 0 C4 2.64 4 5.28 4 8 C2.68 8 1.36 8 0 8 C0 5.36 0 2.72 0 0 Z " fill="#EBA171" transform="translate(60,65)"/>
<path d="M0 0 C2.64 0 5.28 0 8 0 C8 1.32 8 2.64 8 4 C5.36 4 2.72 4 0 4 C0 2.68 0 1.36 0 0 Z " fill="#B37259" transform="translate(90,61)"/>
<path d="M0 0 C1.32 0 2.64 0 4 0 C4 2.64 4 5.28 4 8 C2.68 8 1.36 8 0 8 C0 5.36 0 2.72 0 0 Z " fill="#FFFEFE" transform="translate(83,42)"/>
<path d="M0 0 C2.475 0.495 2.475 0.495 5 1 C4.67 2.98 4.34 4.96 4 7 C2.68 7 1.36 7 0 7 C0 4.69 0 2.38 0 0 Z " fill="#7C4232" transform="translate(128,54)"/>
<path d="M0 0 C1.32 0 2.64 0 4 0 C4 2.31 4 4.62 4 7 C2.68 7 1.36 7 0 7 C0 4.69 0 2.38 0 0 Z " fill="#552519" transform="translate(60,164)"/>
<path d="M0 0 C2.31 0 4.62 0 7 0 C7 1.32 7 2.64 7 4 C4.69 4 2.38 4 0 4 C0 2.68 0 1.36 0 0 Z " fill="#825353" transform="translate(121,156)"/>
<path d="M0 0 C2.31 0 4.62 0 7 0 C7 1.32 7 2.64 7 4 C4.69 4 2.38 4 0 4 C0 2.68 0 1.36 0 0 Z " fill="#BD736B" transform="translate(45,156)"/>
<path d="M0 0 C2.31 0 4.62 0 7 0 C7 1.32 7 2.64 7 4 C4.69 4 2.38 4 0 4 C0 2.68 0 1.36 0 0 Z " fill="#D1B094" transform="translate(121,152)"/>
<path d="M0 0 C1.32 0 2.64 0 4 0 C4 2.31 4 4.62 4 7 C2.68 7 1.36 7 0 7 C0 4.69 0 2.38 0 0 Z " fill="#EBCBA7" transform="translate(41,130)"/>
<path d="M0 0 C1.32 0 2.64 0 4 0 C4 2.31 4 4.62 4 7 C2.68 7 1.36 7 0 7 C0 4.69 0 2.38 0 0 Z " fill="#DA9773" transform="translate(109,130)"/>
<path d="M0 0 C2.31 0 4.62 0 7 0 C7 1.32 7 2.64 7 4 C4.69 4 2.38 4 0 4 C0 2.68 0 1.36 0 0 Z " fill="#D1B094" transform="translate(83,114)"/>
<path d="M0 0 C1.32 0 2.64 0 4 0 C4 2.31 4 4.62 4 7 C2.68 7 1.36 7 0 7 C0 4.69 0 2.38 0 0 Z " fill="#DA9773" transform="translate(60,111)"/>
<path d="M0 0 C2.31 0 4.62 0 7 0 C7 1.32 7 2.64 7 4 C4.69 4 2.38 4 0 4 C0 2.68 0 1.36 0 0 Z " fill="#67393D" transform="translate(98,103)"/>
<path d="M0 0 C2.31 0 4.62 0 7 0 C7 1.32 7 2.64 7 4 C4.69 4 2.38 4 0 4 C0 2.68 0 1.36 0 0 Z " fill="#653124" transform="translate(64,99)"/>
<path d="M0 0 C1.32 0 2.64 0 4 0 C4 2.31 4 4.62 4 7 C2.68 7 1.36 7 0 7 C0 4.69 0 2.38 0 0 Z " fill="#B26947" transform="translate(60,73)"/>
<path d="M0 0 C1.32 0 2.64 0 4 0 C4 2.31 4 4.62 4 7 C2.68 7 1.36 7 0 7 C0 4.69 0 2.38 0 0 Z " fill="#FFC6B2" transform="translate(83,69)"/>
<path d="M0 0 C1.32 0 2.64 0 4 0 C4 2.31 4 4.62 4 7 C2.68 7 1.36 7 0 7 C0 4.69 0 2.38 0 0 Z " fill="#94543F" transform="translate(75,69)"/>
<path d="M0 0 C2.31 0 4.62 0 7 0 C7 1.32 7 2.64 7 4 C4.69 4 2.38 4 0 4 C0 2.68 0 1.36 0 0 Z " fill="#F3BB8A" transform="translate(68,69)"/>
<path d="M0 0 C1.32 0 2.64 0 4 0 C4 2.31 4 4.62 4 7 C2.68 7 1.36 7 0 7 C0 4.69 0 2.38 0 0 Z " fill="#FFDEAC" transform="translate(45,69)"/>
<path d="M0 0 C2.31 0 4.62 0 7 0 C7 1.32 7 2.64 7 4 C4.69 4 2.38 4 0 4 C0 2.68 0 1.36 0 0 Z " fill="#9C593E" transform="translate(83,57)"/>
<path d="M0 0 C2.31 0 4.62 0 7 0 C7 1.32 7 2.64 7 4 C4.69 4 2.38 4 0 4 C0 2.68 0 1.36 0 0 Z " fill="#FEDDAB" transform="translate(49,42)"/>
<path d="M0 0 C1.32 0 2.64 0 4 0 C4 2.31 4 4.62 4 7 C2.68 7 1.36 7 0 7 C0 4.69 0 2.38 0 0 Z " fill="#EBA171" transform="translate(75,31)"/>
<path d="M0 0 C1.32 0 2.64 0 4 0 C4 2.31 4 4.62 4 7 C2.68 7 1.36 7 0 7 C0 4.69 0 2.38 0 0 Z " fill="#7C4232" transform="translate(98,16)"/>
<path d="M0 0 C2.31 0 4.62 0 7 0 C7 1.32 7 2.64 7 4 C4.69 4 2.38 4 0 4 C0 2.68 0 1.36 0 0 Z " fill="#CF855C" transform="translate(83,19)"/>
<path d="M0 0 C0.33 0 0.66 0 1 0 C1 3.3 1 6.6 1 10 C1.99 10 2.98 10 4 10 C4 11.32 4 12.64 4 14 C2.35 14 0.7 14 -1 14 C-0.67 9.38 -0.34 4.76 0 0 Z " fill="#9F5E59" transform="translate(29,157)"/>
<path d="M0 0 C0.99 0.33 1.98 0.66 3 1 C3 3.64 3 6.28 3 9 C2.01 9 1.02 9 0 9 C0 6.03 0 3.06 0 0 Z " fill="#8D4F36" transform="translate(29,56)"/>
<path d="M0 0 C2.64 0 5.28 0 8 0 C8 0.99 8 1.98 8 3 C5.36 3 2.72 3 0 3 C0 2.01 0 1.02 0 0 Z " fill="#D2C0B8" transform="translate(105,175)"/>
<path d="M0 0 C2.64 0 5.28 0 8 0 C8 0.99 8 1.98 8 3 C5.36 3 2.72 3 0 3 C0 2.01 0 1.02 0 0 Z " fill="#E7A274" transform="translate(71,175)"/>
<path d="M0 0 C2.64 0 5.28 0 8 0 C8 0.99 8 1.98 8 3 C5.36 3 2.72 3 0 3 C0 2.01 0 1.02 0 0 Z " fill="#733D2F" transform="translate(52,145)"/>
<path d="M0 0 C0.99 0 1.98 0 3 0 C3 2.64 3 5.28 3 8 C2.01 8 1.02 8 0 8 C0 5.36 0 2.72 0 0 Z " fill="#CAB7AF" transform="translate(102,133)"/>
<path d="M0 0 C2.64 0 5.28 0 8 0 C8 0.99 8 1.98 8 3 C5.36 3 2.72 3 0 3 C0 2.01 0 1.02 0 0 Z " fill="#FFFFCB" transform="translate(75,111)"/>
<path d="M0 0 C0.66 0.33 1.32 0.66 2 1 C2 1.99 2 2.98 2 4 C2.99 4.33 3.98 4.66 5 5 C2.36 5 -0.28 5 -3 5 C-3 3.68 -3 2.36 -3 1 C-2.01 0.67 -1.02 0.34 0 0 Z " fill="#733E30" transform="translate(116,98)"/>
<path d="M0 0 C0.99 0 1.98 0 3 0 C3 2.64 3 5.28 3 8 C2.01 8 1.02 8 0 8 C0 5.36 0 2.72 0 0 Z " fill="#B26947" transform="translate(49,65)"/>
<path d="M0 0 C0.33 0 0.66 0 1 0 C1 2.31 1 4.62 1 7 C0.01 7.495 0.01 7.495 -1 8 C-1.99 7.67 -2.98 7.34 -4 7 C-4 5.68 -4 4.36 -4 3 C-2.68 3 -1.36 3 0 3 C0 2.01 0 1.02 0 0 Z " fill="#AD6547" transform="translate(132,58)"/>
<path d="M0 0 C0.99 0 1.98 0 3 0 C3 2.64 3 5.28 3 8 C2.01 8 1.02 8 0 8 C0 5.36 0 2.72 0 0 Z " fill="#FFC08C" transform="translate(68,27)"/>
<path d="M0 0 C2.64 0 5.28 0 8 0 C8 0.99 8 1.98 8 3 C5.36 3 2.72 3 0 3 C0 2.01 0 1.02 0 0 Z " fill="#9F5B3F" transform="translate(71,16)"/>
<path d="M0 0 C0.99 0.33 1.98 0.66 3 1 C3 2.32 3 3.64 3 5 C1.35 5 -0.3 5 -2 5 C-2 3.68 -2 2.36 -2 1 C-1.34 0.67 -0.68 0.34 0 0 Z " fill="#733E2F" transform="translate(138,125)"/>
<path d="M0 0 C2.31 0 4.62 0 7 0 C7 0.99 7 1.98 7 3 C4.69 3 2.38 3 0 3 C0 2.01 0 1.02 0 0 Z " fill="#733D2F" transform="translate(64,175)"/>
<path d="M0 0 C0.99 0 1.98 0 3 0 C3 2.31 3 4.62 3 7 C2.01 7 1.02 7 0 7 C0 4.69 0 2.38 0 0 Z " fill="#663225" transform="translate(121,171)"/>
<path d="M0 0 C0.99 0 1.98 0 3 0 C3 2.31 3 4.62 3 7 C2.01 7 1.02 7 0 7 C0 4.69 0 2.38 0 0 Z " fill="#81594B" transform="translate(102,171)"/>
<path d="M0 0 C0.99 0 1.98 0 3 0 C3 2.31 3 4.62 3 7 C2.01 7 1.02 7 0 7 C0 4.69 0 2.38 0 0 Z " fill="#FEFECA" transform="translate(30,171)"/>
<path d="M0 0 C1.65 0 3.3 0 5 0 C5.33 1.32 5.66 2.64 6 4 C4.02 4 2.04 4 0 4 C0 2.68 0 1.36 0 0 Z " fill="#956F65" transform="translate(132,122)"/>
<path d="M0 0 C0.99 0 1.98 0 3 0 C3 2.31 3 4.62 3 7 C2.01 7 1.02 7 0 7 C0 4.69 0 2.38 0 0 Z " fill="#FEBF8B" transform="translate(121,35)"/>
<path d="M0 0 C1.32 0 2.64 0 4 0 C4 1.65 4 3.3 4 5 C2.68 5 1.36 5 0 5 C0 3.35 0 1.7 0 0 Z " fill="#E8A67B" transform="translate(48,30)"/>
<path d="M0 0 C1.32 0 2.64 0 4 0 C3.67 1.65 3.34 3.3 3 5 C2.01 5 1.02 5 0 5 C0 3.35 0 1.7 0 0 Z " fill="#AF6D4F" transform="translate(121,30)"/>
<path d="M0 0 C1.65 0 3.3 0 5 0 C4.67 1.32 4.34 2.64 4 4 C2.68 4 1.36 4 0 4 C0 2.68 0 1.36 0 0 Z " fill="#8D4E39" transform="translate(117,27)"/>
<path d="M0 0 C1.65 0 3.3 0 5 0 C5 1.32 5 2.64 5 4 C3.35 3.67 1.7 3.34 0 3 C0 2.01 0 1.02 0 0 Z " fill="#B26947" transform="translate(51,27)"/>
<path d="M0 0 C1.65 0 3.3 0 5 0 C5 1.32 5 2.64 5 4 C3.68 4 2.36 4 1 4 C0.67 2.68 0.34 1.36 0 0 Z " fill="#70392B" transform="translate(32,137)"/>
<path d="M0 0 C1.32 0 2.64 0 4 0 C3.67 1.65 3.34 3.3 3 5 C2.01 4.67 1.02 4.34 0 4 C0 2.68 0 1.36 0 0 Z " fill="#8D4C37" transform="translate(52,84)"/>
<path d="M0 0 C2.475 0.495 2.475 0.495 5 1 C5 2.32 5 3.64 5 5 C3.68 5 2.36 5 1 5 C0.67 3.35 0.34 1.7 0 0 Z " fill="#B66242" transform="translate(36,45)"/>
</svg>
